<svg width="164" height="54" viewBox="0 0 164 54" fill="none" xmlns="http://www.w3.org/2000/svg">
<path d="M59.4373 18.6433C58.8046 17.7516 57.6788 17.3281 56.5294 17.3281C55.1694 17.3281 53.8095 17.9383 53.8095 19.4627C53.8095 22.7927 61.6889 20.8936 61.6889 26.8041C61.6889 30.3683 58.8744 32.1043 55.6153 32.1043C53.5504 32.1043 51.5382 31.4704 50.1743 29.8527L52.4023 27.6945C52.7635 28.2337 53.2531 28.6747 53.827 28.9777C54.401 29.2807 55.0412 29.4364 55.6903 29.4305C57.0502 29.4305 58.5982 28.6796 58.5982 27.1552C58.5982 23.52 50.7188 25.6073 50.7188 19.6731C50.7188 16.2536 53.7674 14.6543 56.8397 14.6543C58.5758 14.6543 60.3105 15.1475 61.6008 16.3641L59.4373 18.6433Z" fill="#405870"/>
<path d="M71.7267 23.8027C71.0691 23.1227 70.3431 22.6769 69.5921 22.6769C67.5286 22.6769 66.2857 24.2959 66.2857 26.0543C66.2857 27.8127 67.5286 29.4317 69.5921 29.4317C70.0126 29.4381 70.4287 29.3463 70.8075 29.1636C71.1862 28.981 71.5172 28.7125 71.774 28.3796L73.6495 30.3931C72.5 31.5426 70.5772 31.9648 69.5921 31.9648C66.191 31.9648 63.4712 29.5974 63.4712 26.0543C63.4712 22.5112 66.191 20.1438 69.5921 20.1438C71.0231 20.1438 72.5947 20.6594 73.6692 21.8536L71.7267 23.8027Z" fill="#405870"/>
<path d="M75.6197 20.424H78.4342V22.2061H78.4763C79.0865 20.9172 80.3294 20.1426 81.8064 20.1426C82.1487 20.1497 82.4882 20.2051 82.8151 20.307V23.0281C82.3723 22.9018 81.9155 22.8307 81.4552 22.8164C78.8051 22.8164 78.4302 25.0443 78.4302 25.6546V31.6821H75.6157L75.6197 20.424Z" fill="#405870"/>
<path d="M95.1804 31.6835H92.5079V29.8777H92.4606C91.945 31.0035 90.8902 31.9649 89.0134 31.9649C85.9885 31.9649 84.9087 29.8304 84.9087 27.5314V20.4241H87.7232V26.1228C87.7232 27.367 87.8166 29.4305 89.7868 29.4305C91.6399 29.4305 92.3672 28.0706 92.3672 26.5687V20.4241H95.1804V31.6835Z" fill="#405870"/>
<path d="M97.8774 20.424H100.551V22.1838H100.599C101.09 21.1316 102.169 20.1426 104.046 20.1426C105.78 20.1426 106.977 20.8225 107.564 22.2298C108.385 20.7989 109.58 20.1426 111.269 20.1426C114.271 20.1426 115.326 22.2771 115.326 24.9746V31.6821H112.512V25.3034C112.512 23.8962 112.089 22.673 110.424 22.673C108.666 22.673 108.01 24.1276 108.01 25.5809V31.6795H105.195V24.972C105.195 23.5884 104.632 22.673 103.271 22.673C101.419 22.673 100.692 24.0329 100.692 25.5349V31.6795H97.8774V20.424Z" fill="#405870"/>
<path d="M119.386 29.5726C119.609 29.5726 119.826 29.6386 120.012 29.7623C120.197 29.886 120.341 30.0619 120.426 30.2676C120.511 30.4733 120.534 30.6997 120.49 30.918C120.447 31.1364 120.34 31.337 120.182 31.4945C120.025 31.6519 119.824 31.7592 119.606 31.8026C119.387 31.846 119.161 31.8237 118.955 31.7385C118.75 31.6533 118.574 31.509 118.45 31.3239C118.326 31.1387 118.26 30.9211 118.26 30.6984C118.258 30.55 118.286 30.4028 118.342 30.2653C118.398 30.1278 118.481 30.0029 118.586 29.898C118.691 29.7931 118.816 29.7102 118.953 29.6543C119.091 29.5985 119.238 29.5707 119.386 29.5726Z" fill="#405870"/>
<path d="M128.346 20.5659C131.676 20.5659 134.044 22.9583 134.044 26.2647C134.044 29.5711 131.677 31.9647 128.346 31.9647C125.014 31.9647 122.647 29.5724 122.647 26.2647C122.647 22.9569 125.016 20.5659 128.346 20.5659ZM128.346 30.6929C130.996 30.6929 132.637 28.6991 132.637 26.2594C132.637 23.8197 130.996 21.8272 128.346 21.8272C125.696 21.8272 124.054 23.821 124.054 26.2594C124.054 28.6978 125.693 30.6982 128.346 30.6982V30.6929Z" fill="#405870"/>
<path d="M136.6 23.896C136.6 23.099 136.483 21.4103 136.483 20.8474H137.89C137.914 21.6444 137.938 22.5361 137.985 22.7478C138.687 21.4813 139.813 20.5659 141.432 20.5659C141.709 20.5706 141.985 20.6099 142.253 20.683L142.088 22.0666C141.915 22.0073 141.733 21.9758 141.549 21.9732C139.109 21.9732 138.007 23.6619 138.007 25.7728V31.6833H136.6V23.896Z" fill="#405870"/>
<path d="M154.403 30.9796C154.403 36.372 150.838 37.3123 148.634 37.3123C146.452 37.3123 144.364 36.468 143.262 35.037L144.364 34.0046C145.35 35.3882 146.945 36.0458 148.634 36.0458C152.925 36.0458 152.996 32.2922 152.996 31.073V29.5724H152.949C152.128 30.8626 150.697 31.6833 148.844 31.6833C145.655 31.6833 143.057 29.1739 143.057 26.1239C143.057 23.074 145.66 20.5659 148.844 20.5659C150.697 20.5659 152.132 21.3866 152.949 22.6702H152.996V20.8474H154.403V30.9796ZM148.748 21.8325C147.899 21.834 147.07 22.0871 146.365 22.5598C145.66 23.0326 145.111 23.7036 144.787 24.4882C144.464 25.2729 144.38 26.1358 144.547 26.9681C144.713 27.8003 145.123 28.5645 145.724 29.164C146.324 29.7635 147.089 30.1715 147.922 30.3363C148.755 30.5012 149.617 30.4155 150.401 30.0902C151.185 29.7648 151.855 29.2144 152.326 28.5084C152.798 27.8025 153.049 26.9727 153.049 26.1239C153.049 25.5599 152.937 25.0014 152.721 24.4803C152.505 23.9593 152.188 23.486 151.789 23.0875C151.39 22.6889 150.916 22.3729 150.395 22.1576C149.873 21.9422 149.315 21.8318 148.751 21.8325H148.748Z" fill="#405870"/>
<path d="M13.3631 26.1805C13.7239 24.5605 14.3586 23.014 15.2399 21.6075C16.0871 20.2565 17.13 19.0385 18.3345 17.9934C17.4129 18.7934 16.5867 19.6972 15.8725 20.6869C16.3775 19.9811 16.9545 19.3297 17.5941 18.743C18.2403 18.1521 18.9454 17.629 19.6984 17.1819C19.4322 17.4449 19.1516 17.693 18.858 17.925C18.5515 18.188 18.2898 18.4511 18.249 18.6141C16.6251 20.0818 15.2962 21.8459 14.3337 23.8118C13.3669 25.7865 12.8163 27.9389 12.716 30.1353C12.5273 29.406 12.5482 28.6383 12.7765 27.9205C12.9619 27.2971 13.2223 26.7684 13.3631 26.1805Z" fill="#415870"/>
<path d="M24.1577 15.2947C23.7408 15.4262 23.3397 15.5682 22.9478 15.7221C23.3371 15.5427 23.7421 15.3996 24.1577 15.2947Z" fill="#415870"/>
<path d="M29.2563 43.8976C29.7035 43.8489 30.1481 43.7805 30.5715 43.7122C30.1396 43.8132 29.6994 43.8753 29.2563 43.8976Z" fill="#415870"/>
<path d="M14.0532 31.8281L14.2492 32.5581C14.533 34.4716 15.1837 36.3124 16.1654 37.9793C15.5865 37.0475 15.0964 36.0634 14.7016 35.0398C14.3067 34.0133 14.0875 32.9275 14.0532 31.8281Z" fill="#415870"/>
<path d="M14.3618 29.7829C14.3725 27.9188 14.863 26.0889 15.7862 24.4695C14.9077 26.107 14.4202 27.9256 14.3618 29.7829Z" fill="#415870"/>
<path d="M38.5447 35.9039C38.5078 35.8908 38.4973 35.85 38.4986 35.8013C38.514 35.7593 38.5203 35.7145 38.5171 35.6698C38.864 35.1585 39.1718 34.6217 39.4377 34.064C39.4225 34.2182 39.3961 34.3712 39.3588 34.5217C39.2336 34.7493 39.0897 34.9662 38.9287 35.17C38.768 35.3943 38.6396 35.64 38.5473 35.9" fill="#415870"/>
<path d="M28.7619 43.928L28.7146 43.9477C28.5607 43.9582 28.4081 43.9688 28.2569 43.974L28.2017 43.9609C28.3884 43.9477 28.5739 43.9359 28.7619 43.928Z" fill="#415870"/>
<path d="M38.1061 36.5575C38.0426 36.5212 37.9699 36.5042 37.897 36.5088C38.114 36.2458 38.3205 35.9644 38.5138 35.679C38.5068 35.7194 38.502 35.7603 38.4993 35.8013C38.4296 36.0275 38.1745 36.2932 38.1048 36.5575" fill="#415870"/>
<path d="M31.6661 40.5807C31.4636 40.6451 31.3176 40.8319 31.2268 40.8937C30.6613 40.9319 30.1036 40.9345 29.4592 40.9292C29.3619 40.9766 29.1528 40.9937 28.9555 41.0752C28.8345 41.02 28.7069 40.9753 28.5728 40.9292C30.0301 40.9449 31.4773 40.6865 32.8393 40.1677C32.4628 40.3404 32.0715 40.4787 31.67 40.5807" fill="#415870"/>
<path d="M25.1668 17.4926C26.2413 17.1454 27.4697 17.0389 28.6652 17.0849C29.8608 17.1309 31.0326 17.3059 32.1479 17.4203C30.9353 16.9389 29.3794 16.668 28.0708 16.5983C26.7621 16.5286 25.7192 16.5799 25.447 16.3168C25.1747 16.0538 26.1151 15.7907 27.4197 15.7408C28.1154 15.7215 28.8115 15.7562 29.5017 15.8447C30.2001 15.9288 30.8643 16.0604 31.4022 16.1629C31.1299 16.0406 31.1299 16.0406 30.8537 15.9262C31.1312 16.0406 31.4022 16.159 31.6705 16.1445C31.3225 15.9893 30.9659 15.8541 30.6025 15.7395C30.2159 15.6079 29.8529 15.4909 29.6937 15.3778C29.8765 15.3396 30.0594 15.3094 30.2448 15.2791C29.503 14.953 28.3627 14.7531 27.2014 14.7202C26.0401 14.6873 24.8656 14.7912 24.0055 14.8043C26.145 14.5599 28.309 14.6352 30.4263 15.0279C32.7002 15.4593 34.866 16.3373 36.7984 17.611C38.8126 18.9406 40.4938 20.7159 41.712 22.7994C42.9234 24.876 43.6151 27.2146 43.7282 29.6161C43.9073 32.1666 43.5218 34.7252 42.5991 37.1096C41.6763 39.4941 40.2391 41.6457 38.3898 43.4112C37.8354 43.8729 37.2336 44.2745 36.5946 44.6094C35.8117 45.0304 34.992 45.379 34.1457 45.651C31.4942 46.7137 28.5469 47.0872 25.6482 46.8255C22.5654 46.4309 19.6759 45.0407 17.3624 42.9706C15.049 40.9005 13.263 38.1386 12.2726 34.9966C12.0688 34.3719 12.0464 33.5735 12.1806 33.3381C12.2463 33.2197 12.345 33.2382 12.4778 33.4696C12.6106 33.7011 12.7816 34.1535 13.0552 34.8795C14.0046 37.2676 15.4227 39.4414 17.2257 41.2727C17.052 41.2346 16.7693 40.9768 16.4865 40.6716C16.2334 40.379 15.9647 40.1002 15.6816 39.8365C16.1818 40.5908 16.7573 41.2923 17.3993 41.9303C18.0365 42.5626 18.7367 43.128 19.4891 43.6177C18.4302 42.9282 17.4549 42.1184 16.5825 41.2043C17.7186 42.3984 19.0252 43.4178 20.4597 44.2293C21.9568 45.0751 23.5867 45.6604 25.2799 45.9601C25.8968 46.0784 26.457 46.3165 27.1107 46.4756C27.8629 46.6744 28.6555 46.6607 29.4004 46.4362C27.1249 46.4401 24.873 45.9754 22.785 45.071C20.7061 44.1702 18.8189 42.8796 17.2257 41.2687C17.2344 41.2699 17.2432 41.2699 17.252 41.2687C15.8815 39.9079 14.7787 38.3018 14.0008 36.534C14.2638 37.0746 14.5847 37.602 14.8241 38.0768C13.5563 35.5516 12.8697 32.8291 12.8934 30.0764C13.0612 32.032 13.5416 33.9481 14.3164 35.7515C15.1026 37.5865 16.2168 39.2628 17.6044 40.698C18.9967 42.1397 20.6579 43.2948 22.4943 44.0977C24.2866 44.8783 26.2212 45.2786 28.176 45.2735C27.1133 45.0881 25.8915 44.9618 24.7196 44.6764C23.5478 44.391 22.4457 43.9544 21.7249 43.3533C24.8388 44.9615 28.4052 45.4691 31.8441 44.7935L31.0957 45.0184C32.23 44.9285 33.3413 44.6498 34.3837 44.1937C35.4276 43.738 36.4255 43.1835 37.364 42.5379C37.5297 42.4288 37.6941 42.3183 37.8572 42.2012L37.364 42.5379C35.6853 43.6372 33.8094 44.4005 31.8401 44.7856C32.7003 44.5225 33.6051 44.2398 34.6639 43.8202C34.0497 43.9518 33.2079 44.2016 32.3478 44.366C31.24 44.6502 30.1021 44.8008 28.9585 44.8145C30.6439 44.7523 32.2962 44.329 33.8037 43.573C31.5889 44.2898 29.1663 44.5909 26.8739 44.2306C28.1345 44.3581 29.4065 44.3139 30.6551 44.0991C32.7985 43.8478 34.8547 43.1042 36.663 41.9263L36.4617 42.075C36.6011 41.9842 36.7353 41.8856 36.8694 41.7896C37.5795 41.3055 38.2426 40.756 38.8501 40.1482C39.373 39.5896 39.8156 38.9611 40.1653 38.2806L40.3771 37.9676C40.2929 38.1991 40.2771 38.3345 40.5651 37.9676C41.1939 37.1391 41.6826 36.2132 42.0119 35.2267C42.3775 34.2114 42.6458 33.1395 42.9325 32.019C43.0811 31.4284 43.1166 30.6038 43.043 29.7279C43.0823 29.5693 43.0656 29.402 42.9956 29.2544C42.9746 29.0663 42.9483 28.877 42.9193 28.6889C42.8755 28.2282 42.791 27.7722 42.6668 27.3263C42.7576 27.7682 42.8483 28.2259 42.9193 28.6889L42.972 29.2071C42.8844 29.0575 42.8309 28.8904 42.8154 28.7178C42.9419 30.3272 42.7947 31.9463 42.3801 33.5065C41.9569 35.0924 41.2805 36.5998 40.3771 37.9702C40.4428 37.7782 40.5507 37.5165 40.5809 37.4008C40.456 37.7006 40.3179 37.9926 40.1653 38.2833C39.5562 39.1605 38.8605 39.9743 38.0886 40.7124C38.2889 40.4948 38.4632 40.2547 38.6081 39.997C37.5338 41.0614 36.3052 41.9579 34.9637 42.6563C33.6116 43.3577 32.1591 43.8457 30.6578 44.103C27.8403 44.4303 24.9893 43.9082 22.4707 42.6037C23.8078 43.4513 25.3095 44.0058 26.8766 44.2306C24.7022 44.0129 22.6108 43.2807 20.7754 42.0947C18.9431 40.9165 17.4341 39.2994 16.3852 37.3902C16.9692 37.9466 17.7281 38.687 18.2555 38.8448C18.3291 38.737 17.5755 37.6756 18.1042 38.2254C19.1024 39.1815 19.977 39.9417 20.7793 40.4704C21.5816 40.9991 22.3102 41.2701 22.9573 41.1543C23.0888 41.103 22.6048 40.5848 22.2681 40.0864C21.9314 39.5879 21.7144 39.1368 22.1024 39.3209C23.0608 39.8765 24.0826 40.3146 25.1458 40.6256C25.522 40.7711 25.909 40.8871 26.3031 40.9728C26.3518 40.9991 26.4465 40.9728 26.5662 40.9426C27.9998 41.1846 29.3794 41.0912 30.1409 41.0228C30.425 41.0031 30.7064 40.9649 30.9866 40.9215C31.1254 40.9266 31.2626 40.9537 31.393 41.0018C31.5547 40.9031 31.7178 40.8137 31.8809 40.7387C32.6155 40.5521 33.3273 40.2852 34.0036 39.943C34.4063 39.806 34.7991 39.6416 35.1794 39.4511C35.1426 39.4143 35.0479 39.3985 35.086 39.3117C35.8705 38.7886 36.5825 38.1642 37.2035 37.4547C37.4817 37.2159 37.7756 36.9963 38.0834 36.7971C38.2044 36.2421 38.6213 35.5108 39.004 34.6625C39.3867 33.8142 39.7208 32.8633 39.8273 32.044H39.8102C39.9618 31.2201 40.024 30.3823 39.9957 29.5451C40.0325 29.4044 40.0746 29.2676 40.1272 29.1374C40.0364 28.9335 40.0075 28.7139 39.9562 28.6113C39.9273 27.9326 39.8944 27.3487 39.8247 26.7582C39.7576 26.6661 39.5616 26.5175 39.4854 26.3084C39.3571 25.8937 39.1939 25.4907 38.9974 25.1037C38.7962 24.6448 38.5683 24.1982 38.3148 23.7661C37.4494 22.2848 36.2892 20.997 34.9058 19.9823C34.8969 19.9097 34.9092 19.8362 34.9414 19.7705C34.6652 19.7061 34.3732 19.4562 34.1338 19.3918C34.1851 19.3918 34.2246 19.3799 34.2351 19.3431C33.9604 19.2545 33.6979 19.1317 33.4539 18.9775C33.2326 18.8193 32.9986 18.6799 32.7542 18.5606C32.5958 18.5284 32.4354 18.5073 32.2741 18.4974C32.2005 18.4659 32.1268 18.4396 32.0532 18.4093C31.3561 17.8701 30.4999 17.8043 29.5898 17.7215C28.6684 17.5646 27.7322 17.5117 26.799 17.5636C26.0559 17.6189 25.731 17.486 25.1813 17.4913" fill="#415870"/>
<path d="M39.5298 33.8614C39.8663 33.1172 40.1251 32.3402 40.3018 31.5427C40.1834 32.4081 40.0874 33.2249 39.5298 33.8614Z" fill="#415870"/>
<path d="M21.7556 38.8116C21.5844 38.5057 21.3914 38.2126 21.1782 37.9343C22.581 39.274 24.3195 40.2101 26.2102 40.6436V40.6594C25.4355 40.5279 24.5372 40.1636 23.7547 39.7624C22.9722 39.3613 22.2856 38.9418 21.7556 38.8116Z" fill="#415870"/>
<path d="M38.4946 35.8006C38.4973 35.7598 38.5021 35.7192 38.509 35.679C38.5116 35.7233 38.5053 35.7678 38.4907 35.8098" fill="#415870"/>
<path d="M16.9333 37.5135L16.811 37.3123C17.1539 37.8052 17.524 38.2785 17.9197 38.73C17.5496 38.3598 17.2191 37.9521 16.9333 37.5135Z" fill="#415870"/>
<path d="M14.9902 31.4453C14.8385 30.237 14.8513 29.0136 15.0283 27.8088C15.3157 26.3145 15.9173 24.8983 16.7933 23.6541C15.4306 26.0139 14.8028 28.7267 14.9902 31.4453Z" fill="#415870"/>
<path d="M19.3672 35.9289C19.2051 35.5573 19.0689 35.175 18.9595 34.7847C19.1223 35.1459 19.3063 35.4973 19.5105 35.8368C19.429 35.8 19.4053 35.8894 19.3672 35.9236" fill="#415870"/>
<path d="M20.4546 41.0449L20.1626 40.8279C20.4362 40.9831 20.7137 41.1291 20.9964 41.2606C20.8846 41.2264 20.6361 41.1159 20.4546 41.0449Z" fill="#415870"/>
<path d="M18.1611 31.8728C18.1926 32.1604 18.2365 32.4467 18.2926 32.7316C18.2203 32.5712 18.144 32.4147 18.0532 32.2568C18.1074 32.135 18.142 32.0054 18.1558 31.8728" fill="#415870"/>
<path d="M18.3111 27.4287C18.4096 27.0582 18.5366 26.6958 18.6912 26.345C18.5457 26.7822 18.4259 27.2274 18.3322 27.6786C18.3072 27.5655 18.2848 27.4734 18.3111 27.4287Z" fill="#415870"/>
<path d="M21.7971 9.2448C22.9784 9.75915 24.0636 10.4707 25.0062 11.3491C25.9095 12.1947 26.6821 13.1698 27.2986 14.2425C26.8232 13.4248 26.2548 12.6648 25.6046 11.9778C26.0669 12.467 26.4777 13.0025 26.8304 13.5757C27.1838 14.155 27.4782 14.7684 27.709 15.4065C27.5475 15.165 27.4004 14.9142 27.2684 14.6555C27.1145 14.3925 26.954 14.1465 26.8317 14.0913C25.9559 12.6371 24.8099 11.3639 23.4556 10.3404C22.0955 9.31173 20.5386 8.57355 18.8813 8.1716C19.4644 8.13499 20.0458 8.26451 20.5582 8.54511C21.0067 8.77922 21.3697 9.05673 21.7971 9.25006" fill="#189AB6"/>
<path d="M28.5 19.0852C28.4619 18.7472 28.4132 18.4276 28.354 18.1001C28.4337 18.4231 28.4825 18.7529 28.5 19.0852Z" fill="#189AB6"/>
<path d="M5.95588 18.7273C5.92694 19.0745 5.91247 19.423 5.90195 19.7597C5.8872 19.4146 5.90525 19.069 5.95588 18.7273Z" fill="#189AB6"/>
<path d="M17.3934 8.93966L16.8095 8.98043C15.31 8.91377 13.8118 9.13705 12.397 9.63803C13.1926 9.33477 14.0152 9.10755 14.8538 8.95939C15.6932 8.81002 16.5519 8.8038 17.3934 8.94097" fill="#189AB6"/>
<path d="M18.9048 9.47632C20.3235 9.7598 21.645 10.4049 22.7412 11.3492C21.6244 10.437 20.3111 9.79635 18.9048 9.47763" fill="#189AB6"/>
<path d="M10.6665 26.9841C10.6823 26.9591 10.7139 26.9578 10.7507 26.9657C10.78 26.9824 10.8121 26.9936 10.8454 26.9986C11.1829 27.3376 11.5451 27.651 11.9291 27.9363C11.8137 27.9 11.7008 27.856 11.5911 27.8048C11.4364 27.6761 11.293 27.5344 11.1624 27.3813C11.0147 27.2275 10.8465 27.0947 10.6626 26.9868" fill="#189AB6"/>
<path d="M6.00774 18.3418L5.99854 18.3036C6.01432 18.1853 6.02747 18.0669 6.0472 17.9512L6.0643 17.9104C6.0472 18.0551 6.02878 18.1984 6.00774 18.3418Z" fill="#189AB6"/>
<path d="M10.2329 26.553C10.2711 26.5114 10.2954 26.459 10.3026 26.4031C10.4736 26.6069 10.6525 26.7976 10.8418 26.9949C10.8123 26.9831 10.782 26.9734 10.7511 26.966C10.5893 26.8792 10.4249 26.6451 10.2329 26.553Z" fill="#189AB6"/>
<path d="M8.12395 21.054C8.08854 20.9181 8.03028 20.7891 7.95166 20.6726C8.00558 20.2373 8.08318 19.8112 8.18577 19.3219C8.16472 19.2404 8.18577 19.0786 8.14894 18.9168C8.20955 18.8321 8.26574 18.7443 8.31728 18.6538C8.09125 19.757 8.07385 20.8927 8.26599 22.0023C8.19098 21.6896 8.14346 21.371 8.12395 21.0501" fill="#189AB6"/>
<path d="M26.6669 19.5242C26.7544 20.4378 26.6841 21.3596 26.4591 22.2493C26.2486 23.1581 25.9409 24.0209 25.6884 24.8521C26.2342 23.9985 26.6708 22.853 26.9168 21.8731C27.1627 20.8933 27.2798 20.0845 27.5191 19.9161C27.7585 19.7478 27.8256 20.504 27.6651 21.5049C27.5777 22.0377 27.4484 22.5628 27.2785 23.0752C27.1101 23.6013 26.9128 24.0814 26.7524 24.4759C26.8839 24.2878 26.8839 24.2878 27.0154 24.0932C26.8789 24.2669 26.7812 24.4678 26.7287 24.6824C26.8987 24.4404 27.0546 24.1888 27.1956 23.9288C27.3086 23.7022 27.4462 23.4888 27.6059 23.2922C27.6059 23.4356 27.6059 23.5803 27.598 23.7263C27.9571 23.2094 28.2754 22.369 28.4753 21.4904C28.6752 20.6119 28.7673 19.7018 28.8843 19.0455C28.7538 20.7108 28.3756 22.3474 27.7624 23.9012C27.0988 25.5702 26.1093 27.0903 24.8519 28.3728C23.5406 29.7074 21.9399 30.7226 20.1738 31.3399C18.415 31.9537 16.5341 32.1342 14.6907 31.866C12.7217 31.6238 10.8304 30.9503 9.15159 29.8934C7.47274 28.8365 6.04768 27.4223 4.97797 25.7517C4.70811 25.2609 4.4912 24.7429 4.33089 24.2063C4.12648 23.5474 3.98253 22.8712 3.90082 22.1862C3.49914 19.9739 3.62394 17.6982 4.26513 15.5431C5.04096 13.2547 6.49004 11.2542 8.42247 9.80358C10.4137 8.30878 12.7715 7.37912 15.247 7.11268C15.7547 7.05087 16.3649 7.15082 16.5241 7.28892C16.6056 7.35599 16.5767 7.42833 16.3768 7.4954C15.9954 7.59678 15.608 7.67366 15.2168 7.72556C13.2574 8.09627 11.3925 8.85657 9.7324 9.9614C9.78633 9.82988 10.0244 9.65759 10.2979 9.48661C10.5584 9.33761 10.8105 9.17428 11.0529 8.99736C10.4045 9.26724 9.78504 9.60167 9.20369 9.99559C8.62831 10.3876 8.09422 10.8371 7.60968 11.3371C8.29195 10.6308 9.0537 10.0059 9.87971 9.47478C8.80146 10.1609 7.83082 11.003 6.99942 11.9737C6.13287 12.9899 5.44572 14.1462 4.96744 15.3932C4.78595 15.8443 4.52159 16.2349 4.30327 16.7084C4.04056 17.2521 3.93358 17.858 3.9942 18.4589C4.32748 16.7265 5.01379 15.0812 6.0104 13.6255C7.00478 12.1747 8.26883 10.9285 9.73372 9.95482C9.72987 9.96054 9.72678 9.96673 9.72451 9.97324C10.964 9.132 12.3499 8.53023 13.8108 8.19904C13.3584 8.33056 12.9112 8.48575 12.514 8.59359C14.5869 7.99284 16.7732 7.895 18.8914 8.3082C17.3774 8.14679 15.8473 8.22893 14.3593 8.55151C12.8453 8.8803 11.4039 9.48242 10.1059 10.3283C8.80734 11.1771 7.68652 12.2706 6.80609 13.5479C5.94662 14.7977 5.35509 16.2118 5.06871 17.7013C5.36858 16.9122 5.64477 16.0074 6.0367 15.1577C6.42863 14.3081 6.92183 13.5335 7.48342 13.0732C5.79756 15.2078 4.88307 17.8497 4.88853 20.5698L4.82146 19.9648C4.72153 20.8433 4.76909 21.7323 4.96218 22.5952C5.1543 23.4577 5.42867 24.2997 5.78155 25.1098C5.84073 25.2532 5.89992 25.3952 5.96568 25.536L5.78155 25.1098C5.19345 23.6684 4.89019 22.1266 4.88853 20.5698C4.96744 21.2642 5.04373 21.9941 5.20549 22.8622C5.20549 22.3755 5.13053 21.6969 5.13316 21.0209C5.0801 20.1355 5.13442 19.247 5.29493 18.3747C5.09141 19.6675 5.16856 20.989 5.52114 22.2493C5.30282 20.4554 5.43434 18.5667 6.04722 16.8728C5.76447 17.8122 5.6092 18.7854 5.58559 19.7662C5.45932 21.435 5.72085 23.1104 6.34972 24.6614L6.27343 24.4851C6.3221 24.6035 6.37734 24.7205 6.43126 24.8389C6.69521 25.4511 7.01529 26.0376 7.38741 26.5908C7.73525 27.0705 8.14825 27.4994 8.61449 27.8652L8.82097 28.0717C8.6592 27.973 8.55793 27.9401 8.79598 28.2163C9.33319 28.8193 9.96592 29.3299 10.6688 29.7275C11.3869 30.1563 12.1629 30.5166 12.9744 30.9007C13.5214 31.1289 14.1003 31.2717 14.6907 31.3242C14.8057 31.3782 14.9362 31.3898 15.059 31.357C15.2049 31.3689 15.3536 31.3768 15.5009 31.3833C15.858 31.4186 16.2177 31.4217 16.5754 31.3925C16.2255 31.3925 15.8625 31.3925 15.5009 31.3833L15.0984 31.3478C15.2246 31.3022 15.3595 31.2855 15.493 31.2992C14.2489 31.1578 13.0379 30.8061 11.9117 30.2588C10.7661 29.7023 9.71827 28.9637 8.80913 28.0717C8.94065 28.1519 9.12873 28.2729 9.2129 28.3123C9.00378 28.1729 8.80256 28.0217 8.60265 27.8652C8.02515 27.2717 7.50916 26.6213 7.06255 25.924C7.19878 26.1085 7.35541 26.277 7.52945 26.4264C6.87808 25.4504 6.37751 24.3819 6.04459 23.2567C5.71244 22.1239 5.5576 20.9464 5.58559 19.7662C5.75336 17.5713 6.57367 15.4768 7.9411 13.7518C7.09713 14.6439 6.45207 15.705 6.04854 16.8649C6.53602 15.2403 7.40344 13.7553 8.57898 12.5326C9.7505 11.3121 11.2085 10.4039 12.8205 9.89038C12.3102 10.2534 11.6368 10.7216 11.4356 11.1004C11.5066 11.1714 12.4259 10.7558 11.9301 11.0767C11.0529 11.6948 10.3453 12.2472 9.82578 12.7864C9.30628 13.3257 8.98932 13.8386 8.98274 14.3436C9.00115 14.4541 9.46805 14.1595 9.90338 13.9767C10.3387 13.7939 10.7083 13.6952 10.511 13.9635C9.94558 14.6117 9.45988 15.3252 9.06428 16.0889C8.89887 16.3539 8.75336 16.6309 8.62895 16.9175C8.60552 16.9824 8.60051 17.0525 8.61449 17.12C8.30427 17.9952 8.10543 18.9059 8.02265 19.8306C7.99634 20.0503 7.98319 20.2686 7.97662 20.4882C7.95055 20.5928 7.90934 20.6929 7.8543 20.7855C7.90559 20.9236 7.949 21.0603 7.98582 21.1958C8.01775 21.7802 8.1139 22.3593 8.27253 22.9227C8.31687 23.25 8.38366 23.5738 8.47244 23.892C8.50532 23.8696 8.53163 23.7999 8.59081 23.8407C8.87398 24.5165 9.24451 25.1524 9.69295 25.7319C9.83398 25.979 9.95747 26.2356 10.0625 26.5C10.4676 26.6736 10.9634 27.1011 11.5526 27.5127C12.1259 27.9374 12.7565 28.2788 13.4255 28.5267V28.5162C14.029 28.7521 14.656 28.9232 15.2957 29.0265C15.396 29.0729 15.4935 29.1251 15.5877 29.183C15.7573 29.1436 15.927 29.1541 16.0112 29.1291C16.5372 29.208 16.9805 29.2698 17.4408 29.3027C17.5602 29.2163 17.6937 29.1514 17.8353 29.1107C18.1703 29.074 18.5015 29.0094 18.8257 28.9173C19.2046 28.8321 19.5783 28.7249 19.9449 28.5964C21.2007 28.1563 22.3528 27.4634 23.3302 26.5605C23.3872 26.5645 23.442 26.5846 23.4881 26.6184C23.5775 26.4172 23.8116 26.233 23.8958 26.0594C23.8879 26.0989 23.8958 26.1304 23.9181 26.1436C24.0258 25.9472 24.1584 25.7655 24.3127 25.603C24.4651 25.4576 24.605 25.2997 24.7309 25.1309C24.7806 25.016 24.8206 24.8973 24.8506 24.7758C24.8861 24.7245 24.919 24.6719 24.9519 24.6206C25.4648 24.1695 25.6423 23.5277 25.8396 22.8464C26.0966 22.1674 26.2757 21.4614 26.3736 20.7421C26.4407 20.1686 26.5906 19.9411 26.6682 19.5216" fill="#189AB6"/>
<path d="M12.0728 28.0376C12.5898 28.4051 13.1434 28.7185 13.7246 28.9727C13.0828 28.7544 12.4752 28.561 12.0728 28.0415" fill="#189AB6"/>
<path d="M10.9371 13.7705C11.1953 13.6866 11.4468 13.5833 11.6894 13.4614C10.4617 14.3311 9.49156 15.5162 8.88147 16.8915H8.86963C9.13639 16.2659 9.49064 15.6814 9.92179 15.1554C10.3387 14.6109 10.7648 14.1572 10.9424 13.7731" fill="#189AB6"/>
<path d="M10.7446 26.9657C10.7752 26.9732 10.8054 26.9823 10.8349 26.9932C10.8018 26.9882 10.7698 26.9771 10.7407 26.9604" fill="#189AB6"/>
<path d="M12.6394 10.289L12.8117 10.2258C12.3857 10.4134 11.9708 10.625 11.5688 10.8598C11.9049 10.6327 12.2637 10.4414 12.6394 10.289Z" fill="#189AB6"/>
<path d="M17.548 9.70898C18.4901 9.77281 19.4192 9.96394 20.31 10.2771C21.4049 10.7176 22.3938 11.3855 23.2113 12.2368C21.6159 10.8497 19.6433 9.96963 17.5454 9.70898" fill="#189AB6"/>
<path d="M13.4868 12.3762C13.7937 12.3087 14.1048 12.2621 14.418 12.2368C14.1176 12.3071 13.8216 12.3949 13.5315 12.4999C13.5723 12.4433 13.5065 12.4117 13.4868 12.3775" fill="#189AB6"/>
<path d="M9.42807 12.4473L9.63587 12.2566C9.47805 12.4433 9.32549 12.6314 9.18213 12.8274C9.22553 12.7472 9.34653 12.5749 9.42807 12.4473Z" fill="#189AB6"/>
<path d="M16.7526 12.0595C16.529 12.0411 16.3041 12.0332 16.0806 12.0372C16.2121 12.0056 16.3436 11.9701 16.4751 11.9241C16.5596 11.9823 16.6528 12.0267 16.7513 12.0556" fill="#189AB6"/>
<path d="M20.1137 12.8325C20.3818 12.9622 20.6391 13.113 20.8831 13.2836C20.5719 13.1075 20.2505 12.9503 19.9204 12.8127C20.0098 12.8127 20.0848 12.8127 20.1137 12.8325Z" fill="#189AB6"/>
<path d="M139.367 35.2017H49.7603V35.2832H139.367V35.2017Z" fill="#415870"/>
<path d="M56.4428 39.9744C56.4428 40.2138 56.2929 40.2519 55.7918 40.2585C55.3972 40.2664 55.0027 40.2743 54.4989 40.2967C54.0728 40.3111 53.5573 40.3414 53.289 40.3637C53.289 40.394 53.2969 40.4084 53.3192 40.7517C53.3055 41.2135 53.2402 41.6723 53.1246 42.1195C52.9902 42.7187 52.9101 43.3288 52.8852 43.9424C52.8707 44.3764 52.8628 44.7946 52.8628 45.1261C52.8655 45.1699 52.8589 45.2139 52.8433 45.255C52.8277 45.2961 52.8036 45.3334 52.7725 45.3645C52.7414 45.3956 52.7041 45.4197 52.663 45.4353C52.6219 45.4509 52.5779 45.4576 52.534 45.4549C52.3473 45.4549 52.1526 45.3575 52.1526 45.1629C52.1526 44.9682 52.1829 44.5053 52.2197 44.1541C52.2622 43.5368 52.3372 42.9222 52.4446 42.3129C52.5485 41.7013 52.6458 41.1844 52.6537 40.9911C52.6424 40.7803 52.6049 40.5718 52.5419 40.3703L52.1474 40.3927C51.5345 40.4308 50.7506 40.4676 50.2048 40.4676C49.9655 40.4676 49.7563 40.4676 49.7563 40.1835C49.7563 40.052 49.951 39.9442 50.31 39.9205L52.1184 39.789L52.5209 39.7285C52.5539 39.6702 52.6017 39.6217 52.6594 39.5878C52.7171 39.5538 52.7827 39.5357 52.8497 39.5352C53.0047 39.5597 53.1469 39.6357 53.2535 39.7509C53.648 39.7509 55.1368 39.6996 55.8983 39.6391C56.1456 39.6391 56.3994 39.6996 56.4376 39.9021L56.4428 39.9744Z" fill="#415870"/>
<path d="M58.6353 43.5097C58.5581 43.9543 58.5142 44.404 58.5038 44.8552C58.5065 44.9009 58.4991 44.9468 58.4821 44.9893C58.465 45.0319 58.4388 45.0702 58.4052 45.1015C58.3717 45.1328 58.3317 45.1562 58.288 45.1703C58.2444 45.1843 58.1981 45.1885 58.1527 45.1826C58.0628 45.1757 57.9789 45.1349 57.9179 45.0685C57.8568 45.0021 57.8233 44.9151 57.8239 44.8249C57.9357 43.9503 57.9435 43.9358 57.9435 43.9201C58.033 43.3374 58.1671 42.2695 58.1671 41.963C58.1708 41.9047 58.1633 41.8462 58.1448 41.7908C57.8686 41.8736 57.211 42.426 56.748 43.3453C56.606 43.6215 56.485 43.8714 56.2996 44.2344L56.1181 44.6526C55.9602 44.9735 55.8642 45.0564 55.6249 45.0564C55.4828 45.0564 55.3618 44.8841 55.3618 44.6829V44.6447L55.5788 42.8968C55.6235 42.5378 55.7103 41.8052 55.7958 41.1332L55.9865 39.6167C56.0247 39.3103 56.1181 38.675 56.4718 38.675C56.7112 38.675 56.7638 38.7724 56.7638 38.9065C56.7638 38.9657 56.7493 39.038 56.7415 39.1156L56.6665 39.5418C56.3679 41.529 56.2785 42.3037 56.2114 43.1059L56.2785 43.0244L56.3679 42.8745C56.3758 42.8521 56.3903 42.8442 56.3982 42.8219C56.5663 42.5552 56.7559 42.3028 56.965 42.0669L57.2715 41.746C57.666 41.3581 58.0711 40.9464 58.3552 40.9464C58.7734 40.9464 58.7892 41.4317 58.7892 41.7605V41.892L58.6353 43.5097Z" fill="#415870"/>
<path d="M60.7806 45.1312C59.6522 45.1312 59.4062 44.0554 59.4062 43.5017C59.4013 43.4721 59.3987 43.4422 59.3983 43.4123C59.3983 43.3675 59.4062 43.307 59.4128 43.2031H59.226C59.0472 43.2031 58.7407 43.1729 58.7407 42.9112C58.7407 42.6494 58.9051 42.6205 59.1221 42.6205C59.2567 42.6152 59.3915 42.6174 59.5259 42.6271C59.7639 42.2167 60.4597 41.0962 61.1541 41.0962C61.692 41.0962 62.8126 41.3803 62.8126 42.3206C62.8241 42.4746 62.8067 42.6294 62.7613 42.777C62.7087 42.9085 62.5364 42.9191 62.297 42.9191L61.5579 42.9638C61.0469 42.9998 60.5381 43.0621 60.0336 43.1505C60.0264 43.22 60.0238 43.2898 60.0257 43.3596V43.5319C60.0257 43.5845 60.0559 44.6078 60.8332 44.6078C61.3106 44.6078 62.1037 44.2264 62.6942 43.9278C62.8712 43.8273 63.0667 43.7638 63.2689 43.7411C63.2944 43.7376 63.3204 43.7393 63.3452 43.7462C63.37 43.7531 63.3931 43.765 63.4132 43.7811C63.4333 43.7972 63.4498 43.8172 63.4619 43.84C63.4739 43.8627 63.4812 43.8877 63.4833 43.9133C63.4833 44.0449 63.2966 44.1514 63.1322 44.2264C63.0653 44.2646 62.9953 44.2971 62.923 44.3237C62.2234 44.7051 61.3935 45.1312 60.7806 45.1312ZM62.126 41.955C61.8831 41.7594 61.5852 41.6445 61.2738 41.6262C60.9976 41.6262 60.4742 42.1944 60.2216 42.5758C60.3255 42.5679 60.5123 42.5376 60.6096 42.5311L61.7315 42.4337C61.8845 42.4306 62.0369 42.413 62.1865 42.3811C62.2043 42.315 62.2145 42.247 62.2168 42.1786C62.2157 42.0953 62.1833 42.0155 62.126 41.955Z" fill="#415870"/>
<path d="M70.5239 40.0493L70.3819 40.4833C70.2766 40.9909 70.1649 41.8734 70.082 42.3956L70.0596 42.5271C70.0083 42.9216 70.0083 43.6766 69.9781 44.1053C69.9781 44.1211 70.0005 44.1356 70.0083 44.8537V44.8984C70.0083 45.0628 70.0228 45.2561 69.6269 45.2561C69.4547 45.2561 69.3797 45.189 69.3573 44.6814C69.3366 44.0134 69.3515 43.3447 69.402 42.6783C69.0732 42.7086 67.9382 42.8204 67.3779 42.9177C67.3556 43.015 67.3398 43.0966 67.2464 44.0317C67.2175 44.2776 67.2017 44.5091 67.1728 44.7037C67.1281 44.9878 67.0597 45.1812 66.8216 45.1812C66.5836 45.1812 66.477 44.9957 66.477 44.7563C66.4845 44.6385 66.4995 44.5212 66.5218 44.4052L66.5441 44.2553C66.5967 43.912 66.6638 43.4411 66.7085 42.9703C66.5218 42.9769 66.2837 42.9927 66.0062 42.9927C65.6485 42.9927 65.4985 42.9545 65.4985 42.7454C65.4985 42.4613 65.7155 42.439 65.9773 42.4166L66.8282 42.3351C66.8656 42.1951 66.8933 42.0527 66.9111 41.9089C66.9558 41.5578 67.157 40.4149 67.1741 40.115C67.1965 39.7639 67.2714 39.4351 67.6897 39.4351C67.9067 39.4574 67.9369 39.5929 67.9369 39.7415C67.9369 40.0256 67.8054 40.3767 67.7423 40.7503L67.541 41.8261C67.5029 42.0286 67.4963 42.0589 67.4661 42.2601C67.9448 42.2299 68.2552 42.2009 69.0206 42.1181L69.4757 42.0957C69.4915 42.0365 69.5204 41.8327 69.5875 41.4157C69.6782 40.8397 69.7821 40.0335 69.8795 39.8467C69.9991 39.6744 70.103 39.5324 70.2832 39.5324C70.3212 39.533 70.3587 39.5414 70.3934 39.5569C70.4281 39.5724 70.4593 39.5948 70.4851 39.6227C70.5109 39.6506 70.5308 39.6834 70.5436 39.7192C70.5563 39.755 70.5617 39.793 70.5594 39.8309L70.5239 40.0493Z" fill="#415870"/>
<path d="M74.0741 41.7682C73.9846 41.7682 73.7532 41.7603 73.5888 41.7603H73.4809C73.473 41.7603 73.2271 41.7458 72.9956 41.7458H72.8825C73.1781 42.0674 73.3342 42.493 73.3165 42.9295C73.3165 43.4819 72.8825 44.9759 71.7093 44.9759C70.8505 44.9759 70.6782 44.1868 70.6782 43.5937C70.6782 43.0492 71.0228 41.6366 72.3669 41.1658C72.3962 41.159 72.4263 41.1563 72.4564 41.1579C72.5672 41.1612 72.6774 41.1762 72.7852 41.2026C72.8123 41.2103 72.84 41.2156 72.868 41.2184C72.868 41.2184 73.69 41.225 74.0109 41.225H74.22C74.4515 41.225 74.6146 41.367 74.6146 41.5091C74.5633 41.7261 74.3384 41.7721 74.2043 41.7721L74.0741 41.7682ZM72.1013 41.947C71.7435 42.1943 71.3398 42.9045 71.3398 43.6739V43.7936C71.3398 44.1513 71.6028 44.4577 71.7501 44.4577C72.2512 44.4577 72.7299 43.5463 72.7299 43.0755C72.7276 42.8499 72.6689 42.6284 72.5591 42.4313C72.4493 42.2342 72.2919 42.0677 72.1013 41.947Z" fill="#415870"/>
<path d="M77.8752 44.5855V44.4803C77.8752 43.9542 77.9502 43.6583 78.0252 42.9639L78.1291 42.0301C78.1331 41.9863 78.1331 41.9423 78.1291 41.8986C77.9344 41.9959 77.3294 42.6522 76.9927 43.1309C76.6639 43.6912 76.418 44.2896 76.372 44.6552C76.3351 44.8341 76.1181 44.9183 75.9248 44.9183C75.6473 44.9183 75.6407 44.671 75.6407 44.5513C75.6407 44.3869 75.6999 44.2002 75.9393 43.0204C75.9719 42.8905 75.9969 42.7587 76.0142 42.6259C76.063 42.3922 76.0881 42.1543 76.0892 41.9157C76.0892 41.8933 76.0892 41.8867 76.0813 41.8867C75.9984 41.8867 75.7525 42.1629 75.6105 42.3418C75.3407 42.6445 75.1121 42.9815 74.9305 43.344L74.5715 44.2646C74.5715 44.3027 74.5491 44.3093 74.4676 44.5934C74.4528 44.6838 74.4063 44.7659 74.3364 44.825C74.2664 44.884 74.1777 44.9162 74.0861 44.9156C73.7876 44.9156 73.7876 44.7289 73.7876 44.5934V44.5342C73.877 43.9884 73.877 43.9818 73.877 43.9818C73.9319 43.7699 73.9758 43.5552 74.0085 43.3387C74.0612 43.0467 74.0691 43.0323 74.0691 43.0099C74.1361 42.4562 74.2177 42.2918 74.2558 41.7026V41.6645C74.2558 41.433 74.2558 41.1187 74.6504 41.1187C74.874 41.1187 74.9489 41.3278 74.9792 41.5303C74.953 41.8749 74.9007 42.2169 74.8227 42.5535C75.2172 42.0156 75.9208 41.1792 76.3693 41.1792C76.5258 41.1792 76.7639 41.2318 76.7639 41.6119C76.7629 41.9675 76.733 42.3224 76.6745 42.6732C76.8894 42.3928 77.1213 42.1257 77.3689 41.8736C77.7279 41.5527 78.258 41.1713 78.5118 41.1713C78.5609 41.1736 78.6091 41.1857 78.6535 41.2069C78.6979 41.2281 78.7376 41.258 78.7703 41.2947C78.803 41.3315 78.8281 41.3744 78.844 41.4209C78.8599 41.4675 78.8663 41.5167 78.8629 41.5658C78.8182 42.0814 78.7893 42.3549 78.759 42.5141V42.5667C78.7209 42.6035 78.7143 42.806 78.6985 43.0454L78.6538 43.4031C78.5957 43.7345 78.5583 44.0693 78.542 44.4053V44.45C78.542 44.5395 78.5644 44.6736 78.5644 44.7631C78.5644 44.9498 78.4973 45.0998 78.183 45.0998C77.9134 45.1011 77.8752 44.817 77.8752 44.5855Z" fill="#415870"/>
<path d="M80.9772 45.1312C79.8487 45.1312 79.6028 44.0554 79.6028 43.5017C79.5979 43.4721 79.5953 43.4422 79.5949 43.4123C79.5949 43.3675 79.6028 43.307 79.6094 43.2031H79.4252C79.2464 43.2031 78.9399 43.1729 78.9399 42.9112C78.9399 42.6494 79.1043 42.6205 79.3213 42.6205C79.4555 42.6152 79.5899 42.6174 79.7238 42.6271C79.9632 42.2167 80.6589 41.0962 81.3533 41.0962C81.8912 41.0962 83.0118 41.3803 83.0118 42.3206C83.0233 42.4746 83.006 42.6294 82.9605 42.777C82.9079 42.9085 82.7356 42.9191 82.4962 42.9191L81.7571 42.9638C81.2461 42.9998 80.7373 43.0621 80.2328 43.1505C80.2256 43.22 80.223 43.2898 80.2249 43.3596V43.5319C80.2249 43.5845 80.2551 44.6078 81.0324 44.6078C81.5098 44.6078 82.3029 44.2264 82.8921 43.9278C83.0696 43.8275 83.2655 43.764 83.4682 43.7411C83.4933 43.7383 83.5186 43.7407 83.5428 43.7479C83.567 43.7551 83.5895 43.7671 83.609 43.7832C83.6285 43.7992 83.6446 43.819 83.6563 43.8414C83.668 43.8637 83.6752 43.8882 83.6773 43.9133C83.6773 44.0449 83.4905 44.1514 83.3261 44.2264C83.259 44.2642 83.1891 44.2967 83.117 44.3237C82.4239 44.7051 81.5927 45.1312 80.9772 45.1312ZM82.3226 41.955C82.0797 41.7594 81.7817 41.6445 81.4704 41.6262C81.1942 41.6262 80.6707 42.1944 80.4182 42.5758C80.5221 42.5679 80.7089 42.5376 80.8128 42.5311L81.9333 42.4337C82.0868 42.4307 82.2396 42.4131 82.3897 42.3811C82.4068 42.3149 82.417 42.247 82.4199 42.1786C82.4178 42.0948 82.384 42.0149 82.3253 41.955H82.3226Z" fill="#415870"/>
<path d="M93.1496 38.3328C92.1185 38.3328 90.8559 38.9969 90.6612 39.8794L90.3982 41.1118C90.1746 41.1499 88.4043 41.2433 88.0755 41.1999C87.9674 41.1755 87.8574 41.1606 87.7467 41.1552C87.7163 41.1535 87.6857 41.1562 87.656 41.1631C86.3119 41.6339 85.9673 43.0464 85.9673 43.5909C85.9673 44.1814 86.1396 44.9732 86.9997 44.9732C88.1716 44.9732 88.6056 43.4791 88.6056 42.9267C88.6232 42.4903 88.4671 42.0647 88.1715 41.7431H88.2847C88.3899 41.7431 89.9287 41.7746 90.3758 41.722L90.2798 42.619C90.1746 43.5607 89.98 44.6365 89.8234 45.473L89.7932 45.6374C89.6959 46.1634 89.5999 46.2502 89.5999 46.5041C89.5999 46.6908 89.6735 46.8026 89.8537 46.8026C90.1891 46.8026 90.1746 46.6606 90.2193 46.5396C90.2272 46.5251 90.2575 46.2923 90.2575 46.2766L90.5626 44.9535L90.8388 43.1674C90.9808 42.0758 90.9874 41.822 90.9874 41.7207V41.676C91.4015 41.6496 91.8135 41.5973 92.221 41.5195L92.9076 41.4301C93.3021 41.3853 93.4757 41.2985 93.4757 41.0855C93.4757 40.9145 93.2364 40.854 93.2298 40.854L92.0856 40.9855C91.8396 41.0368 91.4661 41.0526 91.2346 41.0749L91.1031 41.0894C91.1668 40.7228 91.2547 40.3607 91.3662 40.0057C91.62 39.3192 92.2487 38.9378 93.1667 38.9378C93.5194 38.9579 93.8661 39.0388 94.1912 39.1771C94.2796 39.2335 94.3785 39.2715 94.4819 39.2889C94.5491 39.2886 94.6134 39.2617 94.661 39.2142C94.7085 39.1667 94.7354 39.1023 94.7357 39.0351C94.7331 38.6313 93.8966 38.3328 93.1496 38.3328ZM87.0378 44.4576C86.8879 44.4576 86.6262 44.1512 86.6262 43.7935V43.6738C86.6262 42.9044 87.03 42.1942 87.389 41.9469C87.5793 42.0679 87.7364 42.2344 87.8459 42.4315C87.9555 42.6286 88.0141 42.8499 88.0164 43.0754C88.0164 43.5462 87.5376 44.4576 87.0378 44.4576Z" fill="#415870"/>
<path d="M99.1499 40.1519C98.8593 40.1519 98.1412 40.3978 97.4612 40.7424C96.6616 41.1462 95.9514 41.6986 95.9001 41.9077C95.8698 42.0274 96.3104 42.0497 97.3113 42.1247C97.4428 42.1326 99.0907 42.2365 99.1052 43.0887C99.1131 43.6266 98.3056 44.3434 97.6111 44.8445C97.1403 45.1431 96.3249 45.5547 95.7423 45.5547C95.4582 45.5547 94.936 45.4416 94.936 45.0905C94.9421 45.0165 94.9766 44.9478 95.0323 44.8987C95.0879 44.8497 95.1605 44.8241 95.2346 44.8274C95.3839 44.9279 95.563 44.9743 95.7423 44.9589C96.2802 44.9221 96.7142 44.7498 97.2376 44.4329C97.8729 44.0515 98.4779 43.5122 98.47 43.1913C98.4779 43.1545 98.3884 42.9533 98.0754 42.8481C97.7995 42.7721 97.5166 42.7245 97.231 42.706L96.0724 42.6087C95.5726 42.5416 95.1688 42.393 95.1688 41.9813C95.1688 41.3842 96.5064 40.6359 97.1942 40.2926L97.3257 40.2255C97.8268 39.9862 98.7527 39.5601 99.2012 39.5601C99.4038 39.5601 99.6195 39.5903 99.6195 39.8231C99.6129 40.1519 99.3972 40.1519 99.1499 40.1519Z" fill="#415870"/>
<path d="M102.15 44.5775C101.612 44.8471 100.976 45.1456 100.282 45.1456C99.6244 45.1456 99.2798 44.6603 99.2798 44.0251C99.2844 43.5323 99.4075 43.0478 99.6388 42.6126C99.9019 42.1194 100.775 41.2974 101.455 41.2974C101.718 41.2974 102.277 41.5065 102.277 41.7906C102.263 41.875 102.219 41.9514 102.153 42.0062C102.087 42.0609 102.004 42.0903 101.918 42.0891C101.874 42.0866 101.831 42.0746 101.792 42.054C101.754 42.0333 101.72 42.0045 101.693 41.9694C101.667 41.94 101.635 41.9163 101.599 41.8997C101.563 41.8832 101.524 41.8743 101.484 41.8734C101.007 41.8734 100.662 42.2917 100.311 42.6717H100.319C100.053 43.0587 99.9124 43.5176 99.915 43.9869C99.915 44.1803 99.9676 44.5985 100.349 44.5985C100.991 44.5985 101.41 44.4052 101.927 44.1277C102.764 43.6568 102.876 43.6121 102.898 43.6121C102.965 43.6188 103.028 43.6486 103.076 43.6966C103.124 43.7446 103.154 43.8077 103.161 43.8752C103.161 44.0172 102.891 44.1671 102.635 44.3157L102.503 44.3907L102.15 44.5775Z" fill="#415870"/>
<path d="M103.316 44.7642C103.316 44.78 103.308 44.7945 103.308 44.8089C103.271 44.9733 103.21 45.2429 102.867 45.2429C102.613 45.2429 102.604 45.1009 102.604 44.922C102.603 44.8491 102.611 44.7763 102.626 44.705C102.768 44.033 103.053 42.3955 103.089 41.6564C103.097 41.4762 103.089 41.1777 103.396 41.1777C103.651 41.1777 103.755 41.3092 103.755 41.5722C103.749 41.9054 103.719 42.2377 103.665 42.5665C103.994 42.2005 104.371 41.881 104.786 41.6169C105.216 41.348 105.689 41.1537 106.184 41.0422C106.558 40.9896 106.789 41.1737 106.789 41.2881C106.789 41.5354 106.535 41.5578 106.288 41.5801L106.116 41.5946C105.688 41.7466 105.283 41.9559 104.911 42.2167C103.652 43.0755 103.517 44.1513 103.316 44.7642Z" fill="#415870"/>
<path d="M108.826 44.8025C108.831 44.5445 108.856 44.2872 108.901 44.0331L109.088 42.981C108.991 43.1125 108.887 43.2506 108.737 43.4741C108.439 43.9129 108.104 44.3256 107.736 44.7078L107.675 44.7604C107.497 44.9169 107.257 45.126 106.951 45.126C106.711 45.126 106.518 45.0287 106.518 44.6933C106.518 44.6552 106.54 43.991 106.548 43.945L106.63 43.2427C106.63 43.2137 106.761 42.5338 106.847 42.1905C106.847 42.1747 106.847 42.1682 106.847 42.1524C106.93 41.7946 107.086 41.1292 107.476 41.1292C107.518 41.131 107.559 41.1416 107.597 41.1602C107.635 41.1788 107.669 41.205 107.696 41.2373C107.723 41.2695 107.743 41.307 107.756 41.3475C107.768 41.388 107.771 41.4305 107.766 41.4724C107.744 41.8012 107.46 42.422 107.364 42.952C107.27 43.4303 107.203 43.9132 107.161 44.3987C107.161 44.4211 107.169 44.4277 107.169 44.4277C107.301 44.4277 107.983 43.507 108.521 42.8284L109.426 41.4395C109.468 41.3957 109.52 41.3613 109.576 41.3386C109.633 41.3159 109.694 41.3055 109.755 41.308C109.798 41.3053 109.841 41.3115 109.881 41.326C109.922 41.3406 109.959 41.3633 109.99 41.3927C110.022 41.4222 110.047 41.4577 110.064 41.4972C110.081 41.5367 110.09 41.5793 110.09 41.6223V41.6671C110.009 42.0103 109.926 42.3023 109.859 42.5114C109.748 42.8094 109.668 43.1179 109.619 43.4321C109.613 43.5149 109.605 43.582 109.597 43.657C109.515 44.4711 109.5 44.6736 109.5 44.763V44.8078C109.508 44.8972 109.522 44.9945 109.522 45.0313C109.522 45.1629 109.471 45.2628 109.217 45.2628C108.917 45.2654 108.826 45.1313 108.826 44.8025Z" fill="#415870"/>
<path d="M114.348 44.5855V44.4803C114.348 43.9542 114.423 43.6583 114.498 42.9639L114.602 42.0301C114.606 41.9863 114.606 41.9423 114.602 41.8986C114.407 41.9959 113.802 42.6522 113.465 43.1309C113.137 43.6912 112.889 44.2896 112.845 44.6552C112.808 44.8341 112.591 44.9183 112.396 44.9183C112.12 44.9183 112.113 44.671 112.113 44.5513C112.113 44.3869 112.173 44.2002 112.412 43.0204C112.445 42.8905 112.47 42.7587 112.487 42.6259C112.535 42.3921 112.559 42.1542 112.561 41.9157C112.561 41.8933 112.561 41.8867 112.554 41.8867C112.471 41.8867 112.225 42.1629 112.083 42.3418C111.813 42.6445 111.585 42.9815 111.403 43.344L111.044 44.2646C111.044 44.3027 111.022 44.3093 110.94 44.5934C110.925 44.6838 110.879 44.7659 110.809 44.825C110.739 44.884 110.65 44.9162 110.559 44.9156C110.26 44.9156 110.26 44.7289 110.26 44.5934V44.5342C110.35 43.9884 110.35 43.9818 110.35 43.9818C110.405 43.7699 110.448 43.5552 110.481 43.3387C110.534 43.0467 110.54 43.0323 110.54 43.0099C110.609 42.4562 110.69 42.2918 110.727 41.7026V41.6645C110.727 41.433 110.727 41.1187 111.122 41.1187C111.345 41.1187 111.42 41.3278 111.451 41.5303C111.424 41.8749 111.372 42.2169 111.294 42.5535C111.689 42.0156 112.392 41.1792 112.841 41.1792C112.997 41.1792 113.235 41.2318 113.235 41.6119C113.234 41.9675 113.204 42.3224 113.146 42.6732C113.36 42.3924 113.592 42.1254 113.84 41.8736C114.199 41.5527 114.729 41.1713 114.983 41.1713C115.032 41.1736 115.08 41.1857 115.125 41.2069C115.169 41.2281 115.209 41.258 115.242 41.2947C115.274 41.3315 115.299 41.3744 115.315 41.4209C115.331 41.4675 115.338 41.5167 115.334 41.5658C115.29 42.0814 115.259 42.3549 115.23 42.5141V42.5667C115.192 42.6035 115.186 42.806 115.17 43.0454L115.125 43.4031C115.066 43.7345 115.029 44.0692 115.013 44.4053V44.45C115.013 44.5395 115.036 44.6736 115.036 44.7631C115.036 44.9498 114.969 45.0998 114.654 45.0998C114.381 45.1011 114.348 44.817 114.348 44.5855Z" fill="#415870"/>
<path d="M155.974 19.0759H155.307V18.5366H157.247V19.0759H156.58V20.8474H155.974V19.0759ZM157.742 18.5366H158.554L159.104 20.0399L159.653 18.5366H160.467V20.8474H159.86V19.3455H159.85L159.3 20.8474H158.906L158.356 19.3455H158.345V20.8474H157.74L157.742 18.5366Z" fill="#405870"/>
</svg>
