<svg width="251" height="54" viewBox="0 0 251 54" fill="none" xmlns="http://www.w3.org/2000/svg">
<g clip-path="url(#clip0_47_3082)">
<path d="M142.016 46.1061H140.139V51.3945H139.173V46.1061H137.967V45.2986H139.173V44.7975C139.173 44.1373 139.331 43.6467 139.645 43.3245C139.959 43.0022 140.458 42.8418 141.14 42.8418H142.016V43.6151H141.323C140.884 43.6151 140.571 43.7059 140.385 43.8887C140.2 44.0702 140.107 44.3819 140.107 44.8212V45.2986H142.018V46.1061H142.016Z" fill="#5C5D5D"/>
<path d="M144.057 51.1157C143.56 50.8395 143.17 50.4554 142.885 49.9675C142.601 49.4782 142.459 48.9311 142.459 48.3235C142.459 47.7159 142.601 47.1687 142.885 46.6795C143.169 46.1902 143.558 45.8075 144.05 45.5313C144.544 45.2551 145.097 45.1157 145.711 45.1157C146.326 45.1157 146.881 45.2538 147.378 45.5313C147.874 45.8075 148.264 46.1916 148.55 46.6795C148.834 47.1687 148.976 47.7159 148.976 48.3235C148.976 48.9311 148.834 49.4782 148.55 49.9675C148.266 50.4567 147.875 50.8395 147.378 51.1157C146.881 51.3932 146.326 51.5313 145.711 51.5313C145.097 51.5313 144.553 51.3932 144.057 51.1157ZM146.878 50.3029C147.223 50.1056 147.494 49.8346 147.691 49.4901C147.888 49.1455 147.987 48.7562 147.987 48.3248C147.987 47.8934 147.888 47.5041 147.691 47.1595C147.494 46.815 147.223 46.544 146.878 46.3467C146.533 46.1495 146.144 46.0508 145.713 46.0508C145.281 46.0508 144.892 46.1495 144.547 46.3467C144.203 46.544 143.933 46.815 143.74 47.1595C143.547 47.5041 143.449 47.8934 143.449 48.3248C143.449 48.7562 143.545 49.1455 143.74 49.4901C143.933 49.8346 144.203 50.1056 144.547 50.3029C144.892 50.5001 145.281 50.5988 145.713 50.5988C146.144 50.5988 146.533 50.5001 146.878 50.3029Z" fill="#5C5D5D"/>
<path d="M153.788 45.2184V46.139H153.162C152.6 46.139 152.169 46.31 151.865 46.6506C151.561 46.9912 151.41 47.4621 151.41 48.0605V51.3932H150.443V45.2512H151.126L151.285 46.1837C151.732 45.5393 152.385 45.217 153.241 45.217H153.787L153.788 45.2184Z" fill="#5C5D5D"/>
<path d="M162.749 45.417C163.075 45.6182 163.328 45.897 163.505 46.2535C163.683 46.6099 163.772 47.015 163.772 47.47V51.3933H162.805V47.7646C162.805 47.2109 162.684 46.7795 162.441 46.4678C162.198 46.1575 161.857 46.0009 161.418 46.0009C161.122 46.0009 160.85 46.0877 160.598 46.2627C160.349 46.4376 160.149 46.6756 160.001 46.9795C159.854 47.2833 159.779 47.62 159.779 47.9922V51.3933H158.835V47.7646C158.835 47.2109 158.711 46.7795 158.465 46.4678C158.219 46.1575 157.876 46.0009 157.435 46.0009C157.139 46.0009 156.867 46.0877 156.616 46.2627C156.366 46.4376 156.166 46.6756 156.019 46.9795C155.872 47.2833 155.797 47.62 155.797 47.9922V51.3933H154.83V45.2513H155.523L155.682 46.093C155.918 45.7826 156.207 45.5419 156.552 45.371C156.896 45.2 157.263 45.1145 157.65 45.1145C158.082 45.1145 158.461 45.2184 158.787 45.4275C159.114 45.6366 159.36 45.922 159.527 46.2863C159.762 45.922 160.063 45.6366 160.431 45.4275C160.8 45.2184 161.192 45.1145 161.609 45.1145C162.025 45.1145 162.42 45.2145 162.746 45.4157L162.749 45.417Z" fill="#5C5D5D"/>
<path d="M171.358 48.6984H166.116C166.199 49.2666 166.437 49.7242 166.827 50.0688C167.218 50.4134 167.701 50.5857 168.278 50.5857C168.703 50.5857 169.08 50.4936 169.409 50.3069C169.739 50.1214 170.002 49.8571 170.199 49.5164H171.212C170.954 50.153 170.569 50.6475 170.057 51C169.546 51.3525 168.953 51.5287 168.278 51.5287C167.694 51.5287 167.163 51.388 166.685 51.1078C166.208 50.8277 165.832 50.4423 165.559 49.9531C165.286 49.4638 165.15 48.9207 165.15 48.3209C165.15 47.7212 165.287 47.178 165.559 46.6888C165.832 46.1995 166.208 45.8155 166.685 45.534C167.163 45.2539 167.694 45.1132 168.278 45.1132C168.862 45.1132 169.422 45.2552 169.893 45.5393C170.363 45.8234 170.729 46.2127 170.991 46.7045C171.253 47.1964 171.383 47.7436 171.383 48.342C171.383 48.4261 171.375 48.5432 171.361 48.6944L171.358 48.6984ZM166.872 46.5152C166.489 46.8334 166.245 47.2622 166.138 47.8001H170.403C170.305 47.2543 170.063 46.8242 169.676 46.5099C169.289 46.1956 168.822 46.0377 168.277 46.0377C167.731 46.0377 167.255 46.1969 166.872 46.5152Z" fill="#5C5D5D"/>
<path d="M176.171 45.2184V46.139H175.545C174.983 46.139 174.552 46.31 174.248 46.6506C173.944 46.9912 173.793 47.4621 173.793 48.0605V51.3932H172.826V45.2512H173.509L173.668 46.1837C174.115 45.5393 174.767 45.217 175.624 45.217H176.169L176.171 45.2184Z" fill="#5C5D5D"/>
<path d="M177.217 43.0574H178.183V51.3944H177.217V43.0574Z" fill="#5C5D5D"/>
<path d="M185.643 45.2525L182.721 51.6444C182.493 52.1376 182.27 52.5243 182.05 52.8044C181.83 53.0845 181.583 53.2858 181.311 53.4068C181.037 53.5278 180.704 53.5883 180.31 53.5883H179.73V52.7123H180.231C180.511 52.7123 180.737 52.6768 180.908 52.6045C181.079 52.5321 181.234 52.4098 181.375 52.2349C181.516 52.06 181.669 51.7956 181.836 51.4392L182.051 50.9723L179.322 45.2512H180.38L182.563 49.9031L184.611 45.2512H185.646L185.643 45.2525Z" fill="#5C5D5D"/>
<path d="M191.646 47.7437H190.577V51.3947H189.588V43.4338H190.577V46.8113H191.634L194.182 43.4338H195.456L192.544 47.2663L195.718 51.3947H194.444L191.646 47.7437Z" fill="#5C5D5D"/>
<path d="M202.248 45.2525V51.3945H201.44L201.338 50.462C201.057 50.7961 200.708 51.0578 200.291 51.2472C199.874 51.4366 199.419 51.5313 198.925 51.5313C198.334 51.5313 197.796 51.3905 197.31 51.1104C196.825 50.8303 196.444 50.4449 196.167 49.9556C195.89 49.4664 195.752 48.9232 195.752 48.3235C195.752 47.7238 195.89 47.1687 196.167 46.6795C196.444 46.1902 196.825 45.8075 197.31 45.5313C197.796 45.2551 198.334 45.1157 198.925 45.1157C199.427 45.1157 199.884 45.2104 200.301 45.3998C200.718 45.5892 201.067 45.8549 201.348 46.1955L201.473 45.2512H202.246L202.248 45.2525ZM200.16 50.3015C200.505 50.1043 200.775 49.8333 200.968 49.4888C201.161 49.1442 201.257 48.7549 201.257 48.3235C201.257 47.8921 201.161 47.5028 200.968 47.1582C200.775 46.8136 200.505 46.5427 200.16 46.3454C199.816 46.1481 199.431 46.0495 199.006 46.0495C198.581 46.0495 198.197 46.1481 197.851 46.3454C197.506 46.5427 197.235 46.815 197.038 47.1648C196.841 47.5133 196.742 47.9 196.742 48.3248C196.742 48.7496 196.841 49.1363 197.038 49.4848C197.235 49.8333 197.506 50.1069 197.851 50.3042C198.196 50.5015 198.581 50.6001 199.006 50.6001C199.431 50.6001 199.815 50.5015 200.16 50.3042V50.3015Z" fill="#5C5D5D"/>
<path d="M208.515 45.4511C208.871 45.6747 209.146 45.9837 209.34 46.3783C209.533 46.7729 209.629 47.22 209.629 47.7198V51.3932H208.662V47.9473C208.662 47.3187 208.52 46.8373 208.236 46.5033C207.952 46.1692 207.544 46.0022 207.013 46.0022C206.672 46.0022 206.359 46.0916 206.075 46.2691C205.791 46.4467 205.568 46.6913 205.405 47.003C205.242 47.3134 205.16 47.6593 205.16 48.0381V51.3932H204.193V45.2512H204.876L205.069 46.2179C205.297 45.8693 205.602 45.5984 205.985 45.4051C206.367 45.2117 206.793 45.1157 207.264 45.1157C207.735 45.1157 208.159 45.2275 208.515 45.4511Z" fill="#5C5D5D"/>
<path d="M216.367 45.5313C216.848 45.8075 217.223 46.1915 217.493 46.6794C217.762 47.1687 217.896 47.7158 217.896 48.3234C217.896 48.931 217.762 49.4755 217.493 49.9608C217.223 50.4462 216.848 50.8289 216.367 51.109C215.886 51.3891 215.341 51.5299 214.735 51.5299C214.257 51.5299 213.815 51.4404 213.41 51.2629C213.005 51.0853 212.658 50.8368 212.37 50.5185L212.245 51.3944H211.494V43.0574H212.461V46.0258C212.741 45.7377 213.076 45.5142 213.467 45.355C213.857 45.1959 214.28 45.1157 214.735 45.1157C215.341 45.1157 215.886 45.2538 216.367 45.5313ZM215.816 50.3028C216.156 50.1055 216.425 49.8346 216.618 49.49C216.811 49.1454 216.907 48.7561 216.907 48.3247C216.907 47.8934 216.811 47.5041 216.618 47.1595C216.425 46.8149 216.158 46.544 215.816 46.3467C215.475 46.1494 215.089 46.0508 214.656 46.0508C214.223 46.0508 213.847 46.1494 213.501 46.3467C213.156 46.544 212.886 46.8162 212.688 47.1661C212.491 47.5146 212.392 47.9012 212.392 48.3261C212.392 48.7509 212.491 49.1349 212.688 49.4808C212.886 49.8254 213.156 50.0989 213.501 50.3002C213.846 50.5014 214.231 50.6013 214.656 50.6013C215.081 50.6013 215.475 50.5027 215.816 50.3054V50.3028Z" fill="#5C5D5D"/>
<path d="M225.369 45.2525V51.3945H224.561L224.459 50.462C224.178 50.7961 223.829 51.0578 223.412 51.2472C222.995 51.4366 222.54 51.5313 222.047 51.5313C221.455 51.5313 220.917 51.3905 220.431 51.1104C219.946 50.8303 219.565 50.4449 219.289 49.9556C219.011 49.4664 218.873 48.9232 218.873 48.3235C218.873 47.7238 219.011 47.1687 219.289 46.6795C219.565 46.1902 219.946 45.8075 220.431 45.5313C220.917 45.2551 221.455 45.1157 222.047 45.1157C222.548 45.1157 223.005 45.2104 223.422 45.3998C223.839 45.5892 224.188 45.8549 224.469 46.1955L224.594 45.2512H225.367L225.369 45.2525ZM223.282 50.3015C223.626 50.1043 223.896 49.8333 224.089 49.4888C224.282 49.1442 224.378 48.7549 224.378 48.3235C224.378 47.8921 224.282 47.5028 224.089 47.1582C223.896 46.8136 223.626 46.5427 223.282 46.3454C222.937 46.1481 222.552 46.0495 222.127 46.0495C221.702 46.0495 221.318 46.1481 220.972 46.3454C220.627 46.5427 220.357 46.815 220.159 47.1648C219.962 47.5133 219.863 47.9 219.863 48.3248C219.863 48.7496 219.962 49.1363 220.159 49.4848C220.357 49.8333 220.627 50.1069 220.972 50.3042C221.317 50.5015 221.702 50.6001 222.127 50.6001C222.552 50.6001 222.936 50.5015 223.282 50.3042V50.3015Z" fill="#5C5D5D"/>
<path d="M231.636 45.4511C231.993 45.6747 232.267 45.9837 232.461 46.3783C232.654 46.7729 232.75 47.22 232.75 47.7198V51.3932H231.783V47.9473C231.783 47.3187 231.641 46.8373 231.357 46.5033C231.073 46.1692 230.666 46.0022 230.134 46.0022C229.794 46.0022 229.481 46.0916 229.196 46.2691C228.912 46.4467 228.689 46.6913 228.526 47.003C228.363 47.3134 228.281 47.6593 228.281 48.0381V51.3932H227.314V45.2512H227.997L228.19 46.2179C228.418 45.8693 228.723 45.5984 229.106 45.4051C229.488 45.2117 229.915 45.1157 230.385 45.1157C230.856 45.1157 231.28 45.2275 231.636 45.4511Z" fill="#5C5D5D"/>
<path d="M234.568 43.0798H235.615V44.1833H234.568V43.0798ZM234.614 45.2525H235.581V51.3945H234.614V45.2525Z" fill="#5C5D5D"/>
<path d="M241.645 50.4844V51.3946H236.834V51.2473L240.098 46.1522H237.05V45.2539H241.633V45.413L238.391 50.4858H241.644L241.645 50.4844Z" fill="#5C5D5D"/>
<path d="M248.604 48.6983H243.362C243.445 49.2664 243.683 49.7241 244.073 50.0687C244.464 50.4133 244.947 50.5856 245.524 50.5856C245.949 50.5856 246.326 50.4935 246.655 50.3068C246.985 50.1213 247.248 49.857 247.445 49.5163H248.458C248.2 50.1529 247.815 50.6474 247.303 50.9999C246.792 51.3523 246.199 51.5286 245.524 51.5286C244.94 51.5286 244.409 51.3878 243.931 51.1077C243.454 50.8276 243.078 50.4422 242.805 49.953C242.532 49.4637 242.396 48.9205 242.396 48.3208C242.396 47.7211 242.533 47.1779 242.805 46.6886C243.078 46.1994 243.454 45.8154 243.931 45.5339C244.409 45.2538 244.94 45.113 245.524 45.113C246.108 45.113 246.668 45.2551 247.139 45.5392C247.609 45.8232 247.975 46.2125 248.237 46.7044C248.499 47.1976 248.629 47.7434 248.629 48.3418C248.629 48.426 248.621 48.5431 248.607 48.6943L248.604 48.6983ZM244.118 46.515C243.735 46.8333 243.491 47.2621 243.384 47.8H247.649C247.551 47.2542 247.309 46.8241 246.922 46.5098C246.535 46.1954 246.068 46.0376 245.523 46.0376C244.977 46.0376 244.501 46.1968 244.118 46.515Z" fill="#5C5D5D"/>
<path d="M10.7949 19.3313C11.5117 20.0481 11.5117 21.2146 10.7949 22.0222L7.47666 25.3391C6.76119 26.0559 5.59461 26.0559 4.7884 25.3391L1.47015 22.0222C0.752055 21.3041 0.752055 20.1388 1.47015 19.3313L4.7884 16.013C5.50386 15.2976 6.67044 15.2976 7.47666 16.013L10.7949 19.3313Z" fill="#E2196A"/>
<path d="M23.9776 14.4873C23.2621 13.7719 23.2621 12.6053 23.9776 11.7978L27.2958 8.48083C28.0126 7.76274 29.1792 7.76274 29.9854 8.48083L37.4294 15.9235L40.7476 19.2418C41.4631 19.9572 41.4631 21.1238 40.7476 21.93L29.8946 32.783C29.1792 33.4985 28.0126 33.4985 27.2064 32.783L23.8881 29.4648C23.17 28.7467 23.17 27.5814 23.8881 26.862L28.7294 22.0208C29.4461 21.304 29.4461 20.048 28.7294 19.3312L23.9762 14.4887L23.9776 14.4873Z" fill="#43AC49"/>
<path d="M14.9198 23.4558C14.7409 23.2769 14.5607 23.1862 14.3819 23.0967V18.1647C14.5607 18.0753 14.7409 17.9859 14.9198 17.8057L18.238 14.4888C18.9548 13.772 18.9548 12.6067 18.238 11.7992L14.9198 8.48095C14.2043 7.76416 13.0377 7.76416 12.2289 8.48095L9.0014 11.7992C8.28331 12.5147 8.28331 13.6812 9.0014 14.4888L12.3196 17.8057C12.4985 17.9859 12.6774 18.0766 12.8576 18.1647V23.0967C12.6774 23.1875 12.4985 23.2769 12.3196 23.4558L9.0014 26.774C8.28331 27.4908 8.28331 28.6574 9.0014 29.4636L12.3196 32.7818C13.0364 33.4986 14.203 33.4986 15.0092 32.7818L18.3275 29.4636C19.0429 28.7468 19.0429 27.5802 18.3275 26.774L14.9185 23.4558H14.9198Z" fill="#EF872F"/>
<path d="M22.4547 30.8999C22.2758 30.721 22.0956 30.6302 21.9167 30.5408V25.6088C22.0956 25.5194 22.2758 25.4299 22.4547 25.2498L25.7716 21.9328C26.4884 21.2161 26.4884 20.0508 25.7716 19.2433L22.4547 15.925C22.2758 15.7462 22.0956 15.6554 21.9167 15.566V10.634C22.0956 10.5432 22.2758 10.4551 22.4547 10.2762L25.7716 6.95801C26.4884 6.23991 26.4884 5.07596 25.7716 4.26711L22.4547 0.950184C21.7379 0.233402 20.5713 0.233402 19.7638 0.950184L16.4468 4.26711C15.7287 4.98521 15.7287 6.15047 16.4468 6.95801L19.7638 10.2762C19.9439 10.4551 20.1228 10.5445 20.303 10.634V15.566C20.1228 15.6567 19.9439 15.7462 19.7638 15.925L16.4468 19.2433C15.7287 19.9587 15.7287 21.1253 16.4468 21.9328L19.7638 25.2498C19.9439 25.4299 20.1228 25.5207 20.303 25.6088V30.5408C20.1228 30.6316 19.9439 30.721 19.7638 30.8999L16.4468 34.2181C15.7287 34.9349 15.7287 36.1001 16.4468 36.9077L19.7638 40.2246C20.4805 40.9427 21.6458 40.9427 22.4547 40.2246L25.7716 36.9077C26.4884 36.1909 26.4884 35.0243 25.7716 34.2181L22.4547 30.8999Z" fill="#3167B0"/>
<path d="M127.528 21.1202V30.7659H123.588V21.6239C123.588 18.6292 122.107 17.1799 119.584 17.1799C116.779 17.1799 114.888 18.8818 114.888 22.2552V30.7659H110.947V13.9327H114.698V16.108C115.991 14.564 118.039 13.7433 120.498 13.7433C124.533 13.7433 127.528 16.0449 127.528 21.1202Z" fill="#5C5D5D"/>
<path d="M250.401 22.1197C250.401 27.3529 246.777 30.7566 241.859 30.7566C239.715 30.7566 237.824 30.032 236.47 28.4866V36.6514H232.529V13.7038H236.28V15.9107C237.605 14.3035 239.558 13.5144 241.859 13.5144C246.777 13.5144 250.401 16.9181 250.401 22.1197ZM246.398 22.1197C246.398 18.9041 244.254 16.855 241.417 16.855C238.58 16.855 236.405 18.9041 236.405 22.1197C236.405 25.3354 238.58 27.3845 241.417 27.3845C244.254 27.3845 246.398 25.3354 246.398 22.1197Z" fill="#5C5D5D"/>
<path d="M209.13 20.8901V30.5358H205.19V21.3938C205.19 18.3991 203.804 16.9498 201.407 16.9498C198.823 16.9498 197.026 18.6517 197.026 21.9936V30.5358H193.086V21.3938C193.086 18.3991 191.7 16.9498 189.304 16.9498C186.688 16.9498 184.923 18.6517 184.923 21.9936V30.5358H180.982V13.7026H184.733V15.8463C185.993 14.3326 187.948 13.5132 190.249 13.5132C192.707 13.5132 194.756 14.4272 195.923 16.3185C197.278 14.5851 199.548 13.5132 202.227 13.5132C206.293 13.5132 209.13 15.8148 209.13 20.8901Z" fill="#5C5D5D"/>
<path d="M67.8624 22.6563C67.8624 27.8895 64.2377 31.2932 59.3202 31.2932C57.0186 31.2932 55.0642 30.5054 53.7411 28.8969V31.0722H49.9902V7.68408H53.9305V16.2894C55.2852 14.7756 57.1764 14.051 59.3202 14.051C64.2377 14.051 67.8624 17.4244 67.8624 22.6563ZM63.8589 22.6563C63.8589 19.4406 61.7152 17.3916 58.8783 17.3916C56.0414 17.3916 53.8661 19.4406 53.8661 22.6563C53.8661 25.8719 56.0414 27.921 58.8783 27.921C61.7152 27.921 63.8589 25.8719 63.8589 22.6563Z" fill="#5C5D5D"/>
<path d="M73.6992 30.2477C72.5142 29.6072 71.5975 28.7063 70.9465 27.5437C70.2955 26.381 69.9706 25.0316 69.9706 23.4955V13.5105H73.523V22.9839C73.523 24.4779 73.907 25.6563 74.6751 26.5204C75.4432 27.3845 76.4875 27.8159 77.8119 27.8159C79.1363 27.8159 80.2121 27.3845 80.9802 26.5204C81.7482 25.6563 82.1323 24.4779 82.1323 22.9839V13.5105H85.6846V23.4955C85.6846 25.0316 85.3585 26.381 84.7087 27.5437C84.0577 28.7063 83.141 29.6085 81.956 30.2477C80.7724 30.8882 79.3901 31.2078 77.8119 31.2078C76.2336 31.2078 74.8842 30.8882 73.6992 30.2477Z" fill="#5C5D5D"/>
<path d="M147.005 23.3667H132.987C133.2 24.7542 133.776 25.8524 134.715 26.6625C135.654 27.474 136.838 27.8791 138.268 27.8791C139.292 27.8791 140.209 27.6542 141.02 27.207C141.831 26.7586 142.461 26.1404 142.909 25.3513H146.653C145.969 27.165 144.882 28.5946 143.389 29.6402C141.895 30.6857 140.189 31.2079 138.269 31.2079C136.605 31.2079 135.095 30.8133 133.741 30.0242C132.386 29.2351 131.319 28.1474 130.541 26.7599C129.761 25.3737 129.373 23.8375 129.373 22.1514C129.373 20.4653 129.761 18.9029 130.541 17.5272C131.319 16.1515 132.386 15.0678 133.741 14.2786C135.095 13.4895 136.605 13.095 138.269 13.095C139.933 13.095 141.528 13.5001 142.862 14.3115C144.195 15.123 145.23 16.2212 145.967 17.6074C146.703 18.9949 147.07 20.5193 147.07 22.1843C147.07 22.4618 147.048 22.8564 147.006 23.368L147.005 23.3667ZM134.876 17.4141C133.958 18.1611 133.35 19.1856 133.052 20.4864H143.517C143.196 19.1856 142.572 18.1611 141.644 17.4141C140.715 16.667 139.589 16.2935 138.268 16.2935C136.946 16.2935 135.792 16.667 134.876 17.4141Z" fill="#5C5D5D"/>
<path d="M104.35 7.17383H108.031V10.8222H104.35V7.17383ZM104.414 13.5104H107.966V30.7921H104.414V13.5104Z" fill="#5C5D5D"/>
<path d="M89.5594 29.6073C88.2797 28.5406 87.6182 27.111 87.5761 25.3184H91.064C91.1061 26.2141 91.4691 26.898 92.1517 27.3662C92.8343 27.8357 93.7089 28.0698 94.7768 28.0698C95.758 28.0698 96.5629 27.8725 97.1928 27.478C97.8215 27.0834 98.1371 26.5337 98.1371 25.83C98.1371 25.1264 97.8057 24.5819 97.1455 24.2623C96.4839 23.9427 95.491 23.6757 94.1692 23.4627C92.8895 23.2496 91.8216 22.9984 90.9693 22.7104C90.1158 22.4223 89.3898 21.9265 88.7927 21.2229C88.1956 20.5193 87.897 19.5486 87.897 18.311C87.897 17.2878 88.1745 16.3803 88.7295 15.5912C89.2845 14.8021 90.0684 14.1892 91.0811 13.7513C92.0938 13.3146 93.263 13.095 94.5848 13.095C96.5905 13.095 98.1963 13.5961 99.4024 14.5996C100.607 15.6031 101.232 16.9472 101.274 18.632H97.9136C97.8912 17.7994 97.5821 17.1708 96.9863 16.7433C96.3892 16.3172 95.5672 16.1028 94.5217 16.1028C93.5405 16.1028 92.7619 16.2948 92.1859 16.6789C91.6098 17.0629 91.3218 17.564 91.3218 18.1835C91.3218 18.8661 91.6361 19.3514 92.2661 19.6394C92.8948 19.9274 93.8706 20.1668 95.1937 20.3588C96.5799 20.5942 97.6952 20.8494 98.5383 21.1269C99.3813 21.4044 100.111 21.9002 100.731 22.6144C101.349 23.3298 101.658 24.3478 101.658 25.6709C101.658 27.3346 101.017 28.6748 99.7377 29.6875C98.4567 30.7015 96.7614 31.2079 94.6492 31.2079C92.537 31.2079 90.8404 30.6752 89.5607 29.6073H89.5594Z" fill="#5C5D5D"/>
<path d="M150.727 29.6073C149.448 28.5406 148.786 27.111 148.744 25.3184H152.232C152.274 26.2141 152.637 26.898 153.32 27.3662C154.002 27.8357 154.877 28.0698 155.945 28.0698C156.926 28.0698 157.731 27.8725 158.361 27.478C158.989 27.0834 159.305 26.5337 159.305 25.83C159.305 25.1264 158.974 24.5819 158.313 24.2623C157.652 23.9427 156.659 23.6757 155.337 23.4627C154.057 23.2496 152.99 22.9984 152.137 22.7104C151.284 22.4223 150.558 21.9265 149.961 21.2229C149.364 20.5193 149.065 19.5486 149.065 18.311C149.065 17.2878 149.342 16.3803 149.898 15.5912C150.453 14.8021 151.236 14.1892 152.249 13.7513C153.262 13.3146 154.431 13.095 155.753 13.095C157.758 13.095 159.364 13.5961 160.57 14.5996C161.775 15.6031 162.4 16.9472 162.442 18.632H159.082C159.059 17.7994 158.75 17.1708 158.154 16.7433C157.557 16.3172 156.735 16.1028 155.69 16.1028C154.709 16.1028 153.93 16.2948 153.354 16.6789C152.778 17.0629 152.49 17.564 152.49 18.1835C152.49 18.8661 152.804 19.3514 153.434 19.6394C154.063 19.9274 155.039 20.1668 156.362 20.3588C157.748 20.5942 158.863 20.8494 159.706 21.1269C160.549 21.4044 161.279 21.9002 161.899 22.6144C162.517 23.3298 162.826 24.3478 162.826 25.6709C162.826 27.3346 162.185 28.6748 160.906 29.6875C159.625 30.7015 157.929 31.2079 155.817 31.2079C153.705 31.2079 152.008 30.6752 150.729 29.6073H150.727Z" fill="#5C5D5D"/>
<path d="M166.739 29.6073C165.459 28.5406 164.798 27.111 164.756 25.3184H168.244C168.286 26.2141 168.649 26.898 169.331 27.3662C170.014 27.8357 170.889 28.0698 171.957 28.0698C172.938 28.0698 173.743 27.8725 174.373 27.478C175.001 27.0834 175.317 26.5337 175.317 25.83C175.317 25.1264 174.985 24.5819 174.325 24.2623C173.664 23.9427 172.671 23.6757 171.349 23.4627C170.069 23.2496 169.001 22.9984 168.149 22.7104C167.295 22.4223 166.569 21.9265 165.972 21.2229C165.375 20.5193 165.077 19.5486 165.077 18.311C165.077 17.2878 165.354 16.3803 165.909 15.5912C166.464 14.8021 167.248 14.1892 168.261 13.7513C169.274 13.3146 170.443 13.095 171.764 13.095C173.77 13.095 175.376 13.5961 176.582 14.5996C177.787 15.6031 178.411 16.9472 178.454 18.632H175.093C175.071 17.7994 174.762 17.1708 174.166 16.7433C173.569 16.3172 172.747 16.1028 171.701 16.1028C170.72 16.1028 169.942 16.2948 169.366 16.6789C168.79 17.0629 168.501 17.564 168.501 18.1835C168.501 18.8661 168.816 19.3514 169.446 19.6394C170.074 19.9274 171.05 20.1668 172.373 20.3588C173.76 20.5942 174.875 20.8494 175.718 21.1269C176.561 21.4044 177.291 21.9002 177.91 22.6144C178.529 23.3298 178.838 24.3478 178.838 25.6709C178.838 27.3346 178.197 28.6748 176.917 29.6875C175.636 30.7015 173.941 31.2079 171.829 31.2079C169.717 31.2079 168.02 30.6752 166.74 29.6073H166.739Z" fill="#5C5D5D"/>
<path d="M229.835 13.5659V30.8476H226.908L226.902 28.5C226.113 29.3114 224.886 30.1703 223.819 30.6082C222.752 31.0449 221.6 31.2645 220.363 31.2645C218.677 31.2645 217.147 30.8699 215.77 30.0808C214.394 29.2917 213.311 28.2093 212.522 26.8323C211.732 25.4553 211.338 23.9152 211.338 22.2081C211.338 20.5009 211.732 18.9543 212.522 17.568C213.311 16.1818 214.394 15.0981 215.77 14.3195C217.147 13.5409 218.677 13.1516 220.363 13.1516C221.6 13.1516 222.763 13.3752 223.852 13.8237C224.94 14.2722 226.121 14.9534 226.91 15.7636V13.5672H229.836L229.835 13.5659ZM223.514 27.1348C224.378 26.6442 225.05 25.9669 225.53 25.1028C226.01 24.2387 226.25 23.2734 226.25 22.2067C226.25 21.1401 226.01 20.1748 225.53 19.3107C225.05 18.4466 224.378 17.7693 223.514 17.2787C222.65 16.7881 221.684 16.5422 220.618 16.5422C219.551 16.5422 218.586 16.7881 217.722 17.2787C216.858 17.7693 216.18 18.4466 215.69 19.3107C215.199 20.1748 214.953 21.1401 214.953 22.2067C214.953 23.2734 215.198 24.2387 215.69 25.1028C216.18 25.9669 216.858 26.6442 217.722 27.1348C218.586 27.6254 219.551 27.8713 220.618 27.8713C221.684 27.8713 222.65 27.6267 223.514 27.1348Z" fill="#5C5D5D"/>
</g>
<defs>
<clipPath id="clip0_47_3082">
<rect width="249.468" height="53.18" fill="white" transform="translate(0.931763 0.410034)"/>
</clipPath>
</defs>
</svg>
