<svg width="50" height="50" viewBox="0 0 50 50" fill="none" xmlns="http://www.w3.org/2000/svg">
<path d="M20.8333 14.583L19.7586 17.4873C18.3495 21.2955 17.6449 23.1997 16.2558 24.5888C14.8667 25.9778 12.9626 26.6824 9.15427 28.0918L6.25 29.1663L9.15427 30.2409C12.9626 31.6503 14.8667 32.3549 16.2558 33.7438C17.6449 35.133 18.3495 37.0372 19.7586 40.8453L20.8333 43.7497L21.9079 40.8453C23.3173 37.0372 24.0219 35.133 25.4108 33.7438C26.8 32.3549 28.7042 31.6503 32.5123 30.2409L35.4167 29.1663L32.5123 28.0918C28.7042 26.6824 26.8 25.9778 25.4108 24.5888C24.0219 23.1997 23.3173 21.2955 21.9079 17.4873L20.8333 14.583Z" stroke="black" stroke-width="3.125" stroke-linejoin="round"/>
<path d="M37.5 6.25L37.0394 7.49469C36.4354 9.12681 36.1335 9.9429 35.5381 10.5382C34.9429 11.1335 34.1269 11.4355 32.4948 12.0394L31.25 12.5L32.4948 12.9606C34.1269 13.5645 34.9429 13.8665 35.5381 14.4618C36.1335 15.0571 36.4354 15.8732 37.0394 17.5053L37.5 18.75L37.9606 17.5053C38.5646 15.8732 38.8665 15.0571 39.4619 14.4618C40.0571 13.8665 40.8731 13.5645 42.5052 12.9606L43.75 12.5L42.5052 12.0394C40.8731 11.4355 40.0571 11.1335 39.4619 10.5382C38.8665 9.9429 38.5646 9.12681 37.9606 7.49469L37.5 6.25Z" stroke="black" stroke-width="3.125" stroke-linejoin="round"/>
</svg>
