<svg width="16" height="17" viewBox="0 0 16 17" fill="none" xmlns="http://www.w3.org/2000/svg">
<path d="M13.6331 14.1334H11.2622V10.4206C11.2622 9.53519 11.2464 8.39588 10.0291 8.39588C8.79436 8.39588 8.60513 9.36016 8.60513 10.3568V14.1334H6.23506V6.49809H8.51131V7.5412H8.54285C9.00724 6.74802 9.86981 6.27417 10.7884 6.30807C13.1915 6.30807 13.6339 7.88891 13.6339 9.9444L13.6331 14.1334ZM3.55985 5.45418C2.79978 5.45418 2.184 4.8384 2.184 4.07833C2.184 3.31827 2.79978 2.70249 3.55985 2.70249C4.31991 2.70249 4.93569 3.31827 4.93569 4.07833C4.93569 4.8384 4.31991 5.45418 3.55985 5.45418ZM4.74489 14.1334H2.37166V6.49809H4.74489V14.1334ZM14.815 0.50114H1.18031C0.536146 0.494044 0.00788449 1.01048 0 1.65464V15.3453C0.00788449 15.9902 0.536146 16.5067 1.18031 16.4996H14.815C15.4607 16.5074 15.9913 15.991 16 15.3453V1.65385C15.9905 1.00811 15.4599 0.491679 14.815 0.500352" fill="#555555"/>
</svg>
