<svg width="32" height="33" viewBox="0 0 32 33" fill="none" xmlns="http://www.w3.org/2000/svg">
<path d="M2.66406 8.17969L11.8814 13.4023C15.2795 15.3277 16.7153 15.3277 20.1134 13.4023L29.3307 8.17969" stroke="#141834" stroke-width="1.5" stroke-linejoin="round"/>
<path d="M2.68509 18.1472C2.77225 22.2347 2.81584 24.2783 4.32401 25.7923C5.83217 27.3062 7.93117 27.3588 12.1292 27.4643C14.7165 27.5294 17.2783 27.5294 19.8657 27.4643C24.0637 27.3588 26.1626 27.3062 27.6709 25.7923C29.179 24.2783 29.2226 22.2347 29.3097 18.1472C29.3378 16.833 29.3378 15.5266 29.3097 14.2123C29.2226 10.1249 29.179 8.08122 27.6709 6.56732C26.1626 5.05341 24.0637 5.00068 19.8657 4.8952C17.2783 4.83018 14.7165 4.83018 12.1292 4.89518C7.93117 5.00065 5.83217 5.05338 4.324 6.5673C2.81582 8.08121 2.77225 10.1249 2.68508 14.2123C2.65705 15.5266 2.65706 16.833 2.68509 18.1472Z" stroke="#141834" stroke-width="1.5" stroke-linejoin="round"/>
</svg>
