<svg width="32" height="33" viewBox="0 0 32 33" fill="none" xmlns="http://www.w3.org/2000/svg">
<path d="M15.9974 29.5129L13.3307 21.5129H2.66406L5.33073 29.5129H15.9974ZM15.9974 29.5129H21.3307" stroke="#141834" stroke-width="1.5" stroke-linecap="round" stroke-linejoin="round"/>
<path d="M16.0026 17.5129V16.8463C16.0026 14.3321 16.0026 13.075 15.2215 12.294C14.4405 11.5129 13.1834 11.5129 10.6693 11.5129C8.15511 11.5129 6.89803 11.5129 6.11699 12.294C5.33594 13.075 5.33594 14.3321 5.33594 16.8463V17.5129" stroke="#141834" stroke-width="1.5" stroke-linecap="round" stroke-linejoin="round"/>
<path d="M25.3333 17.513C25.3333 18.9858 24.1395 20.1797 22.6667 20.1797C21.1939 20.1797 20 18.9858 20 17.513C20 16.0402 21.1939 14.8463 22.6667 14.8463C24.1395 14.8463 25.3333 16.0402 25.3333 17.513Z" stroke="#141834" stroke-width="1.5"/>
<path d="M13.3333 5.51301C13.3333 6.98577 12.1394 8.17968 10.6667 8.17968C9.19391 8.17968 8 6.98577 8 5.51301C8 4.04025 9.19391 2.84634 10.6667 2.84634C12.1394 2.84634 13.3333 4.04025 13.3333 5.51301Z" stroke="#141834" stroke-width="1.5"/>
<path d="M18.6641 23.5129H26.6641C28.1369 23.5129 29.3307 24.7068 29.3307 26.1796V26.8463C29.3307 28.3191 28.1369 29.5129 26.6641 29.5129H25.3307" stroke="#141834" stroke-width="1.5" stroke-linecap="round"/>
</svg>
