<svg width="50" height="50" viewBox="0 0 50 50" fill="none" xmlns="http://www.w3.org/2000/svg">
<path d="M45.8333 15.1733C45.8333 20.6766 41.169 25.1387 35.4167 25.1387C34.7402 25.1395 34.0658 25.077 33.4015 24.9523C32.9231 24.8625 32.684 24.8177 32.5171 24.8431C32.3502 24.8685 32.1135 24.9943 31.6404 25.246C30.3021 25.9577 28.7415 26.2091 27.2406 25.93C27.811 25.2283 28.2006 24.3864 28.3725 23.4839C28.4767 22.9318 28.2187 22.3956 27.8321 22.0031C26.0762 20.22 25 17.8175 25 15.1733C25 9.67005 29.6642 5.20801 35.4167 5.20801C41.169 5.20801 45.8333 9.67005 45.8333 15.1733Z" stroke="black" stroke-width="2.5" stroke-linejoin="round"/>
<path d="M32.2751 15.6251H32.292M38.5251 15.6251H38.542" stroke="black" stroke-width="2.5" stroke-linecap="round"/>
<path d="M15.6283 44.7918H9.82887C9.15535 44.7918 8.47895 44.697 7.86033 44.4312C5.84656 43.566 4.82485 42.4235 4.3487 41.7087C4.07777 41.3022 4.11637 40.7841 4.41031 40.3937C6.74343 37.2947 12.1628 35.4231 15.6382 35.4229C19.1136 35.4231 24.5231 37.2947 26.8562 40.3937C27.1502 40.7841 27.1887 41.3022 26.9179 41.7087C26.4416 42.4235 25.42 43.566 23.4062 44.4312C22.7875 44.697 22.1112 44.7918 21.4377 44.7918H15.6283Z" stroke="black" stroke-width="2.5" stroke-linecap="round" stroke-linejoin="round"/>
<path d="M21.428 24.5603C21.428 27.7505 18.8361 30.3368 15.6389 30.3368C12.4417 30.3368 9.84985 27.7505 9.84985 24.5603C9.84985 21.3701 12.4417 18.7839 15.6389 18.7839C18.8361 18.7839 21.428 21.3701 21.428 24.5603Z" stroke="black" stroke-width="2.5" stroke-linecap="round" stroke-linejoin="round"/>
</svg>
