<svg width="40" height="41" viewBox="0 0 40 41" fill="none" xmlns="http://www.w3.org/2000/svg">
<path d="M20 40.2011C31.0457 40.2011 40 31.2468 40 20.2011C40 9.15542 31.0457 0.201111 20 0.201111C8.95431 0.201111 0 9.15542 0 20.2011C0 31.2468 8.95431 40.2011 20 40.2011Z" fill="#AE8CCF"/>
<path fill-rule="evenodd" clip-rule="evenodd" d="M10.7188 33.0005C10.6748 33.0005 10.6307 32.9885 10.5912 32.9655C10.5152 32.9205 10.4688 32.8386 10.4688 32.7505V7.85555C10.4688 7.60505 10.6728 7.40155 10.9228 7.40155H13.7818V10.1146C13.7818 10.3696 13.9887 10.5771 14.2438 10.5771H25.7528C26.0078 10.5771 26.2148 10.3696 26.2148 10.1146V7.40155H29.0738C29.3238 7.40155 29.5278 7.60505 29.5278 7.85555V32.7505C29.5278 32.8386 29.4808 32.9205 29.4053 32.9655C29.3293 33.0105 29.2353 33.0121 29.1578 32.9701L25.7863 31.1306L23.0242 32.959C22.9402 33.014 22.8317 33.014 22.7483 32.959L19.9983 31.1385L17.2483 32.959C17.1648 33.014 17.0563 33.014 16.9723 32.959L14.2102 31.1306L10.8387 32.9701C10.8012 32.9901 10.7603 33.0005 10.7188 33.0005ZM14.2818 7.40155H25.7153V10.0771H14.2818V7.40155ZM16.0917 20.7621C13.8587 20.7621 12.0427 18.9456 12.0427 16.7126C12.0427 14.4801 13.8592 12.6636 16.0917 12.6636C18.3247 12.6636 20.1412 14.4801 20.1412 16.7126C20.1412 18.9456 18.3247 20.7621 16.0917 20.7621ZM16.0917 13.1636C14.1347 13.1636 12.5427 14.7556 12.5427 16.7126C12.5427 18.6696 14.1347 20.2621 16.0917 20.2621C18.0487 20.2621 19.6412 18.6696 19.6412 16.7126C19.6412 14.7556 18.0487 13.1636 16.0917 13.1636ZM15.8417 19.4201C15.1392 19.3011 14.6027 18.6881 14.6027 17.9521C14.6027 17.814 14.7147 17.7021 14.8527 17.7021C14.9907 17.7021 15.1027 17.814 15.1027 17.9521C15.1027 18.411 15.4167 18.7981 15.8417 18.9091V16.9416C15.1392 16.8221 14.6027 16.2096 14.6027 15.4736C14.6027 14.7376 15.1392 14.1245 15.8417 14.0051C15.8462 13.871 15.9562 13.7631 16.0917 13.7631C16.2272 13.7631 16.3372 13.871 16.3417 14.0051C17.0442 14.1245 17.5813 14.7376 17.5813 15.4736C17.5813 15.6116 17.4693 15.7236 17.3313 15.7236C17.1927 15.7236 17.0813 15.6116 17.0813 15.4736C17.0813 15.0141 16.7667 14.627 16.3417 14.516V16.4836C17.0442 16.6031 17.5813 17.2161 17.5813 17.9521C17.5813 18.6881 17.0442 19.3011 16.3417 19.4201C16.3372 19.5546 16.2272 19.6621 16.0917 19.6621C15.9562 19.6621 15.8462 19.5546 15.8417 19.4201ZM16.3417 18.9091C16.7667 18.7981 17.0813 18.411 17.0813 17.9521C17.0813 17.4925 16.7667 17.1056 16.3417 16.9946V18.9091ZM15.8417 14.516C15.4167 14.627 15.1027 15.0141 15.1027 15.4736C15.1027 15.9326 15.4167 16.3196 15.8417 16.4306V14.516ZM27.7043 14.3636H21.3897C21.2517 14.3636 21.1397 14.2521 21.1397 14.1136C21.1397 13.9756 21.2517 13.8636 21.3897 13.8636H27.7043C27.8422 13.8636 27.9537 13.9756 27.9537 14.1136C27.9537 14.2521 27.8422 14.3636 27.7043 14.3636ZM27.7043 16.0966H21.3897C21.2517 16.0966 21.1397 15.9846 21.1397 15.8466C21.1397 15.7086 21.2517 15.5966 21.3897 15.5966H27.7043C27.8422 15.5966 27.9537 15.7086 27.9537 15.8466C27.9537 15.9846 27.8422 16.0966 27.7043 16.0966ZM27.7043 17.8291H21.3897C21.2517 17.8291 21.1397 17.7171 21.1397 17.5791C21.1397 17.4411 21.2517 17.3291 21.3897 17.3291H27.7043C27.8422 17.3291 27.9537 17.4411 27.9537 17.5791C27.9537 17.7171 27.8422 17.8291 27.7043 17.8291ZM27.7043 19.5616H21.3897C21.2517 19.5616 21.1397 19.4496 21.1397 19.3116C21.1397 19.1736 21.2517 19.0616 21.3897 19.0616H27.7043C27.8422 19.0616 27.9537 19.1736 27.9537 19.3116C27.9537 19.4496 27.8422 19.5616 27.7043 19.5616ZM21.3698 22.635H12.4088C12.2703 22.635 12.1588 22.523 12.1588 22.385C12.1588 22.2465 12.2703 22.135 12.4088 22.135H21.3698C21.5077 22.135 21.6193 22.2465 21.6193 22.385C21.6193 22.523 21.5077 22.635 21.3698 22.635ZM21.3698 24.1021H12.4088C12.2703 24.1021 12.1588 23.9901 12.1588 23.8521C12.1588 23.7136 12.2703 23.6021 12.4088 23.6021H21.3698C21.5077 23.6021 21.6193 23.7136 21.6193 23.8521C21.6193 23.9901 21.5077 24.1021 21.3698 24.1021ZM21.3698 25.5686H12.4088C12.2703 25.5686 12.1588 25.4571 12.1588 25.3186C12.1588 25.1806 12.2703 25.0686 12.4088 25.0686H21.3698C21.5077 25.0686 21.6193 25.1806 21.6193 25.3186C21.6193 25.4571 21.5077 25.5686 21.3698 25.5686ZM21.3698 27.0356H12.4088C12.2703 27.0356 12.1588 26.924 12.1588 26.7856C12.1588 26.6476 12.2703 26.5356 12.4088 26.5356H21.3698C21.5077 26.5356 21.6193 26.6476 21.6193 26.7856C21.6193 26.924 21.5077 27.0356 21.3698 27.0356ZM21.3698 28.5026H12.4088C12.2703 28.5026 12.1588 28.3906 12.1588 28.2526C12.1588 28.1146 12.2703 28.0026 12.4088 28.0026H21.3698C21.5077 28.0026 21.6193 28.1146 21.6193 28.2526C21.6193 28.3906 21.5077 28.5026 21.3698 28.5026ZM27.5877 22.635H23.9208C23.7828 22.635 23.6708 22.523 23.6708 22.385C23.6708 22.2465 23.7828 22.135 23.9208 22.135H27.5877C27.7262 22.135 27.8377 22.2465 27.8377 22.385C27.8377 22.523 27.7262 22.635 27.5877 22.635ZM27.5877 24.1021H23.9208C23.7828 24.1021 23.6708 23.9901 23.6708 23.8521C23.6708 23.7136 23.7828 23.6021 23.9208 23.6021H27.5877C27.7262 23.6021 27.8377 23.7136 27.8377 23.8521C27.8377 23.9901 27.7262 24.1021 27.5877 24.1021ZM27.5877 25.5686H23.9208C23.7828 25.5686 23.6708 25.4571 23.6708 25.3186C23.6708 25.1806 23.7828 25.0686 23.9208 25.0686H27.5877C27.7262 25.0686 27.8377 25.1806 27.8377 25.3186C27.8377 25.4571 27.7262 25.5686 27.5877 25.5686ZM27.5877 27.0356H23.9208C23.7828 27.0356 23.6708 26.924 23.6708 26.7856C23.6708 26.6476 23.7828 26.5356 23.9208 26.5356H27.5877C27.7262 26.5356 27.8377 26.6476 27.8377 26.7856C27.8377 26.924 27.7262 27.0356 27.5877 27.0356ZM27.5877 28.5026H23.9208C23.7828 28.5026 23.6708 28.3906 23.6708 28.2526C23.6708 28.1146 23.7828 28.0026 23.9208 28.0026H27.5877C27.7262 28.0026 27.8377 28.1146 27.8377 28.2526C27.8377 28.3906 27.7262 28.5026 27.5877 28.5026Z" fill="#FEFEFE"/>
</svg>
