<svg width="60" height="60" viewBox="0 0 60 60" fill="none" xmlns="http://www.w3.org/2000/svg">
<path d="M29.5032 16.2237L33.2172 12.5098C37.399 8.32801 42.8737 6.59343 48.6677 6.30998C50.9215 6.19973 52.0482 6.14461 52.9517 7.04821C53.8555 7.95178 53.8002 9.07858 53.69 11.3322C53.4065 17.1263 51.672 22.6011 47.4902 26.7828L43.7762 30.4968C40.7177 33.5553 39.8482 34.425 40.4902 37.7425C41.124 40.2768 41.7372 42.7308 39.8945 44.5735C37.6592 46.8088 35.6202 46.8088 33.385 44.5735L15.4264 26.615C13.1912 24.3797 13.1911 22.3408 15.4264 20.1055C17.2692 18.2627 19.7232 18.8761 22.2574 19.5097C25.575 20.1518 26.4447 19.2822 29.5032 16.2237Z" stroke="#141834" stroke-width="3" stroke-linejoin="round"/>
<path d="M42.4902 17.5H42.5142" stroke="#141834" stroke-width="3" stroke-linecap="round" stroke-linejoin="round"/>
<path d="M6.25 53.7498L18.75 41.2498" stroke="#141834" stroke-width="3" stroke-linecap="round"/>
<path d="M21.25 53.7498L26.25 48.7498" stroke="#141834" stroke-width="3" stroke-linecap="round"/>
<path d="M6.25 38.7498L11.25 33.7498" stroke="#141834" stroke-width="3" stroke-linecap="round"/>
</svg>
