<svg width="16" height="16" viewBox="0 0 16 16" fill="none" xmlns="http://www.w3.org/2000/svg">
<mask id="mask0_533_5015" style="mask-type:alpha" maskUnits="userSpaceOnUse" x="0" y="0" width="16" height="16">
<rect width="16" height="16" fill="#D9D9D9"/>
</mask>
<g mask="url(#mask0_533_5015)">
<path d="M3.53915 13.6666C3.20237 13.6666 2.91732 13.5499 2.68398 13.3166C2.45065 13.0833 2.33398 12.7982 2.33398 12.4614V3.53842C2.33398 3.20164 2.45065 2.91659 2.68398 2.68325C2.91732 2.44992 3.20237 2.33325 3.53915 2.33325H7.24415C7.38604 2.33325 7.50487 2.38114 7.60065 2.47692C7.69632 2.57259 7.74415 2.69136 7.74415 2.83325C7.74415 2.97514 7.69632 3.09392 7.60065 3.18959C7.50487 3.28536 7.38604 3.33325 7.24415 3.33325H3.53915C3.48782 3.33325 3.44082 3.35464 3.39815 3.39742C3.35537 3.44008 3.33398 3.48709 3.33398 3.53842V12.4614C3.33398 12.5128 3.35537 12.5598 3.39815 12.6024C3.44082 12.6452 3.48782 12.6666 3.53915 12.6666H12.4622C12.5135 12.6666 12.5605 12.6452 12.6032 12.6024C12.6459 12.5598 12.6673 12.5128 12.6673 12.4614V8.75642C12.6673 8.61453 12.7152 8.4957 12.811 8.39992C12.9067 8.30425 13.0254 8.25642 13.1673 8.25642C13.3092 8.25642 13.428 8.30425 13.5237 8.39992C13.6194 8.4957 13.6673 8.61453 13.6673 8.75642V12.4614C13.6673 12.7982 13.5507 13.0833 13.3173 13.3166C13.084 13.5499 12.7989 13.6666 12.4622 13.6666H3.53915ZM12.6673 4.03575L6.83148 9.87175C6.73915 9.96397 6.6231 10.0112 6.48332 10.0134C6.34365 10.0155 6.22548 9.96831 6.12882 9.87175C6.03226 9.77508 5.98398 9.65797 5.98398 9.52042C5.98398 9.38286 6.03226 9.26575 6.12882 9.16908L11.9648 3.33325H9.83398C9.6921 3.33325 9.57332 3.28536 9.47765 3.18959C9.38187 3.09392 9.33398 2.97514 9.33398 2.83325C9.33398 2.69136 9.38187 2.57259 9.47765 2.47692C9.57332 2.38114 9.6921 2.33325 9.83398 2.33325H13.0647C13.2365 2.33325 13.3799 2.39075 13.4948 2.50575C13.6098 2.62064 13.6673 2.76403 13.6673 2.93592V6.16658C13.6673 6.30847 13.6194 6.42725 13.5237 6.52292C13.428 6.6187 13.3092 6.66658 13.1673 6.66658C13.0254 6.66658 12.9067 6.6187 12.811 6.52292C12.7152 6.42725 12.6673 6.30847 12.6673 6.16658V4.03575Z" fill="#1C1B1F"/>
</g>
</svg>
