<svg width="50" height="50" viewBox="0 0 50 50" fill="none" xmlns="http://www.w3.org/2000/svg">
<path d="M35.4147 45.8338C41.1677 45.8338 45.8314 41.1701 45.8314 35.4172C45.8314 29.6642 41.1677 25.0005 35.4147 25.0005C29.6617 25.0005 24.998 29.6642 24.998 35.4172C24.998 41.1701 29.6617 45.8338 35.4147 45.8338Z" stroke="black" stroke-width="2.5"/>
<path d="M15.6243 27.0832H13.3327C9.01147 27.0832 6.85087 27.0832 5.50845 25.7407C4.16602 24.3984 4.16602 22.2378 4.16602 17.9165V13.3332C4.16602 9.01196 4.16602 6.85136 5.50845 5.50894C6.85087 4.1665 9.01147 4.1665 13.3327 4.1665H17.916C22.2373 4.1665 24.3979 4.1665 25.7402 5.50894C27.0827 6.85136 27.0827 9.01196 27.0827 13.3332V15.6248" stroke="black" stroke-width="2.5"/>
<path d="M25.0712 39.5835C19.1182 38.5847 14.582 33.4075 14.582 27.1706C14.582 20.2189 20.2174 14.5835 27.1691 14.5835C33.406 14.5835 38.5833 19.1196 39.582 25.0727" stroke="black" stroke-width="2.5"/>
</svg>