<svg width="50" height="50" viewBox="0 0 50 50" fill="none" xmlns="http://www.w3.org/2000/svg">
<path d="M45.8322 15.1733C45.8322 20.6766 41.1678 25.1387 35.4155 25.1387C34.739 25.1395 34.0647 25.077 33.4003 24.9523C32.922 24.8625 32.6828 24.8177 32.5159 24.8431C32.349 24.8685 32.1124 24.9943 31.6393 25.246C30.3009 25.9577 28.7403 26.2091 27.2395 25.93C27.8099 25.2283 28.1995 24.3864 28.3713 23.4839C28.4755 22.9318 28.2176 22.3956 27.8309 22.0031C26.0751 20.22 24.9988 17.8175 24.9988 15.1733C24.9988 9.67005 29.663 5.20801 35.4155 5.20801C41.1678 5.20801 45.8322 9.67005 45.8322 15.1733Z" stroke="black" stroke-width="2.5" stroke-linejoin="round"/>
<path d="M32.2773 15.6255H32.2942M38.5273 15.6255H38.5442" stroke="black" stroke-width="2.5" stroke-linecap="round"/>
<path d="M15.6283 44.7923H9.82887C9.15535 44.7923 8.47895 44.6975 7.86033 44.4317C5.84656 43.5665 4.82485 42.424 4.3487 41.7092C4.07777 41.3027 4.11637 40.7846 4.41031 40.3942C6.74343 37.2952 12.1628 35.4235 15.6382 35.4233C19.1136 35.4235 24.5231 37.2952 26.8562 40.3942C27.1502 40.7846 27.1887 41.3027 26.9179 41.7092C26.4416 42.424 25.42 43.5665 23.4062 44.4317C22.7875 44.6975 22.1112 44.7923 21.4377 44.7923H15.6283Z" stroke="black" stroke-width="2.5" stroke-linecap="round" stroke-linejoin="round"/>
<path d="M21.4269 24.5601C21.4269 27.7503 18.835 30.3365 15.6378 30.3365C12.4406 30.3365 9.84882 27.7503 9.84882 24.5601C9.84882 21.3699 12.4406 18.7837 15.6378 18.7837C18.835 18.7837 21.4269 21.3699 21.4269 24.5601Z" stroke="black" stroke-width="2.5" stroke-linecap="round" stroke-linejoin="round"/>
</svg>