<svg width="118" height="33" viewBox="0 0 118 33" fill="none" xmlns="http://www.w3.org/2000/svg">
<path d="M23.8504 3.43325L23.5559 3.95694H18.9863L20.4057 1.42704C20.7581 0.797638 21.4171 0.40918 22.1292 0.40918C23.6525 0.40918 24.6084 2.08594 23.8504 3.43325Z" fill="#F7A464"/>
<path d="M34.1919 0.40918C34.8798 0.40918 35.3095 1.16643 34.9692 1.7737L19.6549 29.074L19.4594 29.4206H14.8898L15.0853 29.074L19.8191 20.641L10.4601 3.95694H5.567L14.5639 19.9944L12.2778 24.0683L0.992525 3.95694L0.183845 2.51866C-0.342401 1.57947 0.323855 0.40918 1.386 0.40918H13.0334L15.7564 5.26737L17.0044 7.48994L18.2524 5.26737H22.8221L19.2904 11.5614L22.1003 16.5671L31.1647 0.40918H34.1919Z" fill="#032432"/>
<path d="M115.873 19.4249C115.401 19.4249 114.984 19.3683 114.622 19.255C114.261 19.1418 113.941 18.9506 113.663 18.6817C113.371 18.3985 113.17 18.0588 113.059 17.6624C112.961 17.266 112.913 16.7564 112.913 16.1335V11.1433H111.537V9.25336H112.913L113.08 6.6627H115.436V9.25336H118V11.1433H115.436V15.6451C115.436 16.268 115.519 16.7068 115.686 16.9616C115.769 17.089 115.894 17.1952 116.061 17.2802C116.228 17.3651 116.408 17.4076 116.603 17.4076C116.978 17.4076 117.361 17.358 117.75 17.2589L118 19.1064C117.736 19.1913 117.402 19.2621 116.999 19.3187C116.596 19.3895 116.221 19.4249 115.873 19.4249Z" fill="#032432"/>
<path d="M104.283 19.4249C103.213 19.4249 102.4 19.1064 101.844 18.4693C101.288 17.8323 101.01 16.8909 101.01 15.6451V9.25336H103.553V15.1142C103.553 15.8079 103.679 16.3387 103.929 16.7068C104.193 17.0607 104.624 17.2377 105.221 17.2377C105.611 17.2377 105.951 17.1315 106.243 16.9192C106.549 16.7068 106.785 16.4378 106.952 16.1122C107.133 15.7866 107.251 15.461 107.306 15.1354V9.25336H109.85V19.2125H107.473L107.327 17.535C106.98 18.0871 106.556 18.5401 106.055 18.894C105.555 19.2479 104.964 19.4249 104.283 19.4249Z" fill="#032432"/>
<path d="M87.2329 5.72837H89.8599V11.0796H95.6561V5.72837H98.2831V19.2125H95.6561V13.2243H89.8599V19.2125H87.2329V5.72837Z" fill="#032432"/>
<path d="M80.7904 19.4249C79.8452 19.4249 78.9973 19.2196 78.2468 18.8091C77.5101 18.3985 76.9332 17.804 76.5162 17.0253C76.0993 16.2467 75.8908 15.3195 75.8908 14.2436C75.8908 13.1677 76.0993 12.2404 76.5162 11.4618C76.9332 10.6832 77.5101 10.0886 78.2468 9.67806C78.9834 9.26752 79.8244 9.06225 80.7695 9.06225C81.673 9.06225 82.4583 9.2746 83.1255 9.6993C83.7927 10.1098 84.3 10.6973 84.6475 11.4618C84.995 12.2121 85.1688 13.0756 85.1688 14.0525V14.8594H78.4552C78.483 15.6946 78.7332 16.3387 79.2058 16.7918C79.6923 17.2448 80.3317 17.4713 81.124 17.4713C81.7912 17.4713 82.3819 17.358 82.8962 17.1315C83.4105 16.8909 83.7927 16.6643 84.0429 16.452L84.9186 18.0234C84.7101 18.2357 84.4043 18.4552 84.0012 18.6817C83.612 18.894 83.1394 19.071 82.5834 19.2125C82.0275 19.3541 81.4298 19.4249 80.7904 19.4249ZM82.7502 13.1606C82.7502 12.4811 82.5765 11.9219 82.229 11.483C81.8815 11.0442 81.3603 10.8247 80.6653 10.8247C80.2066 10.8247 79.8105 10.938 79.4769 11.1645C79.1572 11.3769 78.907 11.66 78.7263 12.0139C78.5595 12.3678 78.4552 12.75 78.4135 13.1606H82.7502Z" fill="#032432"/>
<path d="M68.3871 19.4249C67.3168 19.4249 66.5037 19.1064 65.9477 18.4693C65.3917 17.8323 65.1137 16.8909 65.1137 15.6451V9.25336H67.6573V15.1142C67.6573 15.8079 67.7824 16.3387 68.0326 16.7068C68.2967 17.0607 68.7276 17.2377 69.3253 17.2377C69.7145 17.2377 70.055 17.1315 70.3469 16.9192C70.6527 16.7068 70.889 16.4378 71.0558 16.1122C71.2365 15.7866 71.3546 15.461 71.4102 15.1354V9.25336H73.9539V19.2125H71.577L71.4311 17.535C71.0836 18.0871 70.6597 18.5401 70.1593 18.894C69.6589 19.2479 69.0682 19.4249 68.3871 19.4249Z" fill="#032432"/>
<path d="M60.0259 5.30367H62.5696V19.2125H60.0259V5.30367Z" fill="#032432"/>
<path d="M57.6055 16.9829C57.6055 17.4783 57.6402 17.903 57.7097 18.257C57.7931 18.5967 57.9113 18.9152 58.0641 19.2125H55.3537C55.2981 19.0568 55.2495 18.8728 55.2078 18.6604C55.1661 18.4339 55.1452 18.2286 55.1452 18.0446C54.8394 18.441 54.4433 18.7737 53.9568 19.0427C53.4703 19.2975 52.8796 19.4249 52.1846 19.4249C51.6286 19.4249 51.1074 19.3187 50.6209 19.1064C50.1344 18.894 49.7383 18.5613 49.4325 18.1083C49.1267 17.6553 48.9738 17.0749 48.9738 16.3671C48.9738 15.4044 49.2657 14.7107 49.8495 14.286C50.4332 13.8472 51.0865 13.5357 51.8093 13.3517C52.2124 13.2526 52.7128 13.1747 53.3105 13.1181C53.9221 13.0473 54.5128 13.0119 55.0827 13.0119V12.5448C55.0827 12.0776 54.9506 11.7095 54.6865 11.4406C54.339 11.1008 53.797 10.9309 53.0603 10.9309C52.5321 10.9309 52.0039 11.0159 51.4757 11.1857C50.9475 11.3556 50.4888 11.568 50.0997 11.8228L49.4116 10.0391C49.8981 9.77008 50.4819 9.54357 51.163 9.35954C51.858 9.16134 52.5599 9.06225 53.2688 9.06225C53.9915 9.06225 54.617 9.14719 55.1452 9.31707C55.6734 9.47279 56.1112 9.6993 56.4587 9.99658C56.8201 10.2939 57.0981 10.6761 57.2927 11.1433C57.5012 11.5963 57.6055 12.1979 57.6055 12.9482V16.9829ZM55.0827 14.5409C54.8881 14.5409 54.6031 14.555 54.2278 14.5833C53.8526 14.6116 53.5259 14.647 53.2479 14.6895C52.7892 14.7744 52.3861 14.9231 52.0387 15.1354C51.7051 15.3478 51.5383 15.6946 51.5383 16.1759C51.5383 16.6856 51.6842 17.0537 51.9761 17.2802C52.268 17.5067 52.6294 17.6199 53.0603 17.6199C53.4495 17.6199 53.8248 17.5137 54.1861 17.3014C54.5475 17.089 54.8464 16.7776 55.0827 16.3671V14.5409Z" fill="#032432"/>
<path d="M37.2749 5.72837H40.0479L43.3004 16.3458L46.5947 5.72837H49.1591L44.6765 19.2125H41.7576L37.2749 5.72837Z" fill="#032432"/>
<path d="M92.6067 26.5215V30.098C92.6067 30.5518 92.5722 30.913 92.5031 31.1815C92.4404 31.45 92.3399 31.6769 92.2019 31.8623C92.045 32.0732 91.8253 32.2458 91.5428 32.38C91.2667 32.5207 90.9215 32.591 90.5073 32.591C90.2374 32.591 89.9863 32.559 89.7541 32.4951C89.5281 32.4312 89.3399 32.3577 89.1892 32.2746C89.0386 32.1979 88.9288 32.1307 88.8597 32.0732L89.161 31.5554C89.2175 31.6002 89.3148 31.6545 89.4528 31.7184C89.5909 31.7888 89.751 31.8495 89.933 31.9006C90.1213 31.9582 90.3095 31.9869 90.4978 31.9869C90.7803 31.9869 91.0125 31.9486 91.1945 31.8719C91.3828 31.7951 91.5272 31.6929 91.6276 31.565C91.8284 31.3157 91.9288 30.9226 91.9288 30.3856V30.0117C91.8159 30.2354 91.6339 30.4304 91.3828 30.5966C91.138 30.7628 90.8336 30.8459 90.4696 30.8459C90.1056 30.8459 89.7855 30.7532 89.5093 30.5678C89.2394 30.376 89.0292 30.114 88.8785 29.7816C88.7279 29.4428 88.6526 29.0592 88.6526 28.6309C88.6526 28.209 88.7373 27.8319 88.9068 27.4995C89.0762 27.1607 89.3053 26.8986 89.594 26.7132C89.8828 26.5215 90.2029 26.4256 90.5543 26.4256C90.9309 26.4256 91.229 26.5119 91.4487 26.6845C91.6746 26.8571 91.8316 27.052 91.9194 27.2694L92.0136 26.5215H92.6067ZM90.6296 30.2514C90.887 30.2514 91.1129 30.1811 91.3075 30.0404C91.5083 29.8934 91.6621 29.6953 91.7688 29.446C91.8818 29.1967 91.9383 28.9218 91.9383 28.6213C91.9383 28.3145 91.8849 28.0396 91.7782 27.7967C91.6778 27.5474 91.5303 27.3525 91.3357 27.2118C91.1474 27.0648 90.9278 26.9913 90.6767 26.9913C90.4194 26.9913 90.1903 27.0648 89.9895 27.2118C89.7949 27.3525 89.6411 27.5474 89.5281 27.7967C89.4214 28.046 89.3681 28.3209 89.3681 28.6213C89.3681 28.9282 89.4183 29.2062 89.5187 29.4555C89.6254 29.6985 89.7729 29.8934 89.9612 30.0404C90.1558 30.1811 90.3786 30.2514 90.6296 30.2514Z" fill="#032432"/>
<path d="M84.0827 26.5215H84.7134L84.7699 27.3557C84.908 27.0936 85.0994 26.873 85.3442 26.694C85.5953 26.5151 85.8934 26.4256 86.2386 26.4256C86.6654 26.4256 87.0043 26.5598 87.2554 26.8283C87.5064 27.0904 87.6319 27.4963 87.6319 28.046V30.913H86.9447V28.257C86.9447 27.867 86.8756 27.5698 86.7376 27.3652C86.5995 27.1543 86.3641 27.0488 86.0315 27.0488C85.8118 27.0488 85.611 27.1159 85.4289 27.2502C85.2469 27.3844 85.0994 27.5474 84.9865 27.7392C84.8735 27.931 84.8013 28.11 84.7699 28.2762V30.913H84.0827V26.5215Z" fill="#032432"/>
<path d="M82.3164 25.5434C82.1784 25.5434 82.0591 25.4987 81.9587 25.4092C81.8645 25.3133 81.8175 25.195 81.8175 25.0544C81.8175 24.9138 81.8645 24.7955 81.9587 24.6996C82.0528 24.6037 82.1689 24.5558 82.307 24.5558C82.4451 24.5558 82.5612 24.6037 82.6554 24.6996C82.7558 24.7891 82.806 24.9042 82.806 25.0448C82.806 25.1855 82.7589 25.3037 82.6648 25.3996C82.5706 25.4955 82.4545 25.5434 82.3164 25.5434ZM81.9681 26.5215H82.6554V30.913H81.9681V26.5215Z" fill="#032432"/>
<path d="M80.3529 31.0089C79.9888 31.0089 79.7001 30.897 79.4867 30.6733C79.38 30.5518 79.3047 30.4048 79.2608 30.2322C79.2168 30.0532 79.1949 29.8167 79.1949 29.5227V27.0584H78.5547V26.5215H79.1949L79.2702 25.2845H79.8821V26.5215H81.1154V27.0584H79.8821V29.4651C79.8821 29.6889 79.8947 29.8615 79.9198 29.9829C79.9512 30.1044 80.0014 30.1971 80.0704 30.261C80.1834 30.376 80.3466 30.4336 80.56 30.4336C80.6416 30.4336 80.7263 30.4272 80.8142 30.4144C80.902 30.3952 80.9648 30.3792 81.0025 30.3665L81.0872 30.9034C80.9993 30.929 80.8832 30.9514 80.7389 30.9705C80.6008 30.9961 80.4721 31.0089 80.3529 31.0089Z" fill="#032432"/>
<path d="M76.9391 24.6325H77.6263V30.913H76.9391V24.6325Z" fill="#032432"/>
<path d="M73.4034 30.9993C72.9829 30.9993 72.644 30.8715 72.3867 30.6158C72.1356 30.3601 72.0101 29.9541 72.0101 29.398V26.5215H72.6973V29.2254C72.6973 29.6026 72.7664 29.8902 72.9044 30.0884C73.0488 30.2866 73.2779 30.3856 73.5917 30.3856C73.7988 30.3856 73.9902 30.3249 74.166 30.2034C74.3417 30.0756 74.4861 29.919 74.5991 29.7336C74.7183 29.5418 74.7936 29.3565 74.825 29.1775V26.5215H75.5123V30.913H74.8815L74.825 30.0788C74.6869 30.3345 74.4955 30.5518 74.2507 30.7308C74.0059 30.9098 73.7235 30.9993 73.4034 30.9993Z" fill="#032432"/>
<path d="M69.4082 30.9993C69.1446 30.9993 68.8998 30.9546 68.6739 30.8651C68.4479 30.7692 68.2565 30.6605 68.0996 30.539C67.949 30.4176 67.8391 30.3121 67.7701 30.2226L68.1655 29.8007C68.3036 29.9605 68.4856 30.1076 68.7115 30.2418C68.9438 30.3696 69.1886 30.4336 69.4459 30.4336C69.7346 30.4336 69.9605 30.376 70.1237 30.261C70.2869 30.1459 70.3685 29.9829 70.3685 29.772C70.3685 29.6377 70.3308 29.5259 70.2555 29.4364C70.1865 29.3469 70.1049 29.2798 70.0107 29.235C69.9229 29.1839 69.813 29.1327 69.6812 29.0816L69.4271 28.9953C69.1572 28.9122 68.9626 28.8419 68.8434 28.7843C68.7116 28.7332 68.586 28.6725 68.4668 28.6022C68.3538 28.5255 68.244 28.4104 68.1373 28.257C68.0368 28.1036 67.9866 27.9118 67.9866 27.6817C67.9866 27.4324 68.0494 27.2118 68.1749 27.0201C68.3005 26.8283 68.4762 26.6813 68.7021 26.579C68.9344 26.4703 69.2011 26.416 69.5024 26.416C69.7785 26.416 70.0233 26.4575 70.2367 26.5406C70.4501 26.6173 70.6196 26.7004 70.7451 26.7899C70.8706 26.8794 70.9459 26.9433 70.971 26.9817L70.6509 27.4611C70.5191 27.3269 70.3528 27.2118 70.152 27.1159C69.9574 27.0201 69.7471 26.9721 69.5212 26.9721C69.2639 26.9721 69.0505 27.0264 68.881 27.1351C68.7178 27.2374 68.6362 27.3908 68.6362 27.5954C68.6362 27.7296 68.6708 27.8383 68.7398 27.9214C68.8151 28.0045 68.8936 28.0684 68.9752 28.1131C69.063 28.1515 69.1854 28.1994 69.3423 28.257L69.7189 28.3912C69.7817 28.4104 69.8507 28.4328 69.926 28.4583C70.0013 28.4839 70.0767 28.5127 70.152 28.5446C70.3654 28.6341 70.5662 28.7652 70.7545 28.9378C70.9428 29.1104 71.0369 29.3565 71.0369 29.6761C71.0369 30.0277 70.902 30.3313 70.6321 30.587C70.5003 30.7084 70.3308 30.8075 70.1237 30.8842C69.9166 30.9609 69.6781 30.9993 69.4082 30.9993Z" fill="#032432"/>
<path d="M63.3414 26.5215H63.9722L64.0287 27.3557C64.1667 27.0936 64.3582 26.873 64.6029 26.694C64.854 26.5151 65.1521 26.4256 65.4973 26.4256C65.9241 26.4256 66.263 26.5598 66.5141 26.8283C66.7651 27.0904 66.8907 27.4963 66.8907 28.046V30.913H66.2034V28.257C66.2034 27.867 66.1344 27.5698 65.9963 27.3652C65.8582 27.1543 65.6228 27.0488 65.2902 27.0488C65.0705 27.0488 64.8697 27.1159 64.6877 27.2502C64.5056 27.3844 64.3582 27.5474 64.2452 27.7392C64.1322 27.931 64.06 28.11 64.0287 28.2762V30.913H63.3414V26.5215Z" fill="#032432"/>
<path d="M60.2272 30.9993C59.8255 30.9993 59.4709 30.9066 59.1633 30.7212C58.8558 30.5295 58.6142 30.261 58.4384 29.9158C58.269 29.5706 58.1842 29.1711 58.1842 28.7172C58.1842 28.257 58.269 27.8543 58.4384 27.5091C58.6142 27.1639 58.8558 26.8986 59.1633 26.7132C59.4709 26.5215 59.8255 26.4256 60.2272 26.4256C60.6289 26.4256 60.9835 26.5215 61.291 26.7132C61.5986 26.8986 61.8371 27.1639 62.0065 27.5091C62.1823 27.8543 62.2701 28.257 62.2701 28.7172C62.2701 29.1711 62.1854 29.5706 62.0159 29.9158C61.8465 30.261 61.6048 30.5295 61.291 30.7212C60.9835 30.9066 60.6289 30.9993 60.2272 30.9993ZM60.2272 30.4336C60.5033 30.4336 60.7418 30.3633 60.9427 30.2226C61.1435 30.0756 61.2942 29.8742 61.3946 29.6185C61.5013 29.3565 61.5546 29.056 61.5546 28.7172C61.5546 28.3784 61.5013 28.078 61.3946 27.8159C61.2942 27.5538 61.1435 27.3525 60.9427 27.2118C60.7418 27.0648 60.5033 26.9913 60.2272 26.9913C59.951 26.9913 59.7125 27.0648 59.5117 27.2118C59.3108 27.3525 59.1571 27.5538 59.0504 27.8159C58.95 28.078 58.8997 28.3784 58.8997 28.7172C58.8997 29.056 58.95 29.3565 59.0504 29.6185C59.1571 29.8742 59.3108 30.0756 59.5117 30.2226C59.7125 30.3633 59.951 30.4336 60.2272 30.4336Z" fill="#032432"/>
<path d="M55.3633 30.9993C54.8299 30.9993 54.356 30.8746 53.9418 30.6253C53.5338 30.3696 53.2137 30.0053 52.9815 29.5323C52.7555 29.0592 52.6426 28.5031 52.6426 27.8638C52.6426 27.2374 52.7649 26.6877 53.0097 26.2146C53.2608 25.7416 53.5966 25.3772 54.0171 25.1215C54.4376 24.8658 54.902 24.738 55.4104 24.738C55.7744 24.738 56.1008 24.7987 56.3895 24.9202C56.6782 25.0352 56.9199 25.1823 57.1144 25.3612C57.309 25.5338 57.4565 25.7128 57.5569 25.8982L57.0768 26.3489C57.0015 26.1954 56.8885 26.0452 56.7379 25.8982C56.5935 25.7512 56.4084 25.6297 56.1824 25.5338C55.9565 25.4379 55.7023 25.39 55.4198 25.39C55.0182 25.39 54.6635 25.4955 54.356 25.7064C54.0485 25.911 53.81 26.2018 53.6405 26.579C53.471 26.9497 53.3863 27.3748 53.3863 27.8543C53.3863 28.3401 53.4679 28.7716 53.6311 29.1487C53.7943 29.5259 54.0265 29.8199 54.3278 30.0309C54.629 30.2354 54.9805 30.3377 55.3822 30.3377C55.7901 30.3377 56.1447 30.2386 56.446 30.0404C56.7473 29.8423 56.9764 29.609 57.1333 29.3405L57.5852 29.8007C57.4722 30.0053 57.3121 30.1971 57.105 30.376C56.9042 30.555 56.6563 30.7052 56.3613 30.8267C56.0663 30.9418 55.7337 30.9993 55.3633 30.9993Z" fill="#032432"/>
</svg>
