<svg width="118" height="31" viewBox="0 0 118 31" fill="none" xmlns="http://www.w3.org/2000/svg">
<path d="M23.8504 2.91302L23.5559 3.41747H18.9863L20.4057 0.980481C20.7581 0.374193 21.4171 0 22.1292 0C23.6525 0 24.6084 1.61519 23.8504 2.91302Z" fill="#F7A464"/>
<path d="M34.1919 0C34.8798 0 35.3095 0.72944 34.9692 1.31441L19.6549 27.6121L19.4594 27.9461H14.8898L15.0853 27.6121L19.8191 19.4888L10.4601 3.41747H5.567L14.5639 18.866L12.2778 22.7903L0.992525 3.41747L0.183845 2.03201C-0.342401 1.12732 0.323855 0 1.386 0H13.0334L15.7564 4.67978L17.0044 6.82073L18.2524 4.67978H22.8221L19.2904 10.7427L22.1003 15.5645L31.1647 0H34.1919Z" fill="white"/>
<path d="M115.873 18.3174C115.401 18.3174 114.984 18.2628 114.622 18.1538C114.261 18.0447 113.941 17.8606 113.663 17.6015C113.371 17.3287 113.17 17.0014 113.059 16.6196C112.961 16.2378 112.913 15.7469 112.913 15.1469V10.3399H111.537V8.5194H112.913L113.08 6.02388H115.436V8.5194H118V10.3399H115.436V14.6764C115.436 15.2764 115.519 15.6991 115.686 15.9446C115.769 16.0673 115.894 16.1696 116.061 16.2514C116.228 16.3332 116.408 16.3742 116.603 16.3742C116.978 16.3742 117.361 16.3264 117.75 16.231L118 18.0106C117.736 18.0924 117.402 18.1606 116.999 18.2151C116.596 18.2833 116.221 18.3174 115.873 18.3174Z" fill="white"/>
<path d="M104.283 18.3174C103.213 18.3174 102.4 18.0106 101.844 17.3969C101.288 16.7833 101.01 15.8764 101.01 14.6764V8.5194H103.553V14.165C103.553 14.8332 103.679 15.3446 103.929 15.6991C104.193 16.0401 104.624 16.2105 105.221 16.2105C105.611 16.2105 105.951 16.1082 106.243 15.9037C106.549 15.6991 106.785 15.44 106.952 15.1264C107.133 14.8128 107.251 14.4991 107.306 14.1855V8.5194H109.85V18.1128H107.473L107.327 16.4969C106.98 17.0287 106.556 17.4651 106.055 17.806C105.555 18.1469 104.964 18.3174 104.283 18.3174Z" fill="white"/>
<path d="M87.2329 5.12386H89.8599V10.2785H95.6561V5.12386H98.2831V18.1128H95.6561V12.3445H89.8599V18.1128H87.2329V5.12386Z" fill="white"/>
<path d="M80.7904 18.3174C79.8452 18.3174 78.9973 18.1197 78.2468 17.7242C77.5101 17.3287 76.9332 16.756 76.5162 16.006C76.0993 15.2559 75.8908 14.3627 75.8908 13.3264C75.8908 12.29 76.0993 11.3968 76.5162 10.6467C76.9332 9.89671 77.5101 9.32397 78.2468 8.9285C78.9834 8.53304 79.8244 8.33531 80.7695 8.33531C81.673 8.33531 82.4583 8.53986 83.1255 8.94896C83.7927 9.34443 84.3 9.91035 84.6475 10.6467C84.995 11.3695 85.1688 12.2013 85.1688 13.1423V13.9195H78.4552C78.483 14.7241 78.7332 15.3446 79.2058 15.781C79.6923 16.2173 80.3317 16.4355 81.124 16.4355C81.7912 16.4355 82.3819 16.3264 82.8962 16.1082C83.4105 15.8764 83.7927 15.6582 84.0429 15.4537L84.9186 16.9674C84.7101 17.1719 84.4043 17.3833 84.0012 17.6015C83.612 17.806 83.1394 17.9765 82.5834 18.1128C82.0275 18.2492 81.4298 18.3174 80.7904 18.3174ZM82.7502 12.2831C82.7502 11.6286 82.5765 11.0899 82.229 10.6672C81.8815 10.2445 81.3603 10.0331 80.6653 10.0331C80.2066 10.0331 79.8105 10.1422 79.4769 10.3604C79.1572 10.5649 78.907 10.8376 78.7263 11.1786C78.5595 11.5195 78.4552 11.8877 78.4135 12.2831H82.7502Z" fill="white"/>
<path d="M68.3871 18.3174C67.3168 18.3174 66.5037 18.0106 65.9477 17.3969C65.3917 16.7833 65.1137 15.8764 65.1137 14.6764V8.5194H67.6573V14.165C67.6573 14.8332 67.7824 15.3446 68.0326 15.6991C68.2967 16.0401 68.7276 16.2105 69.3253 16.2105C69.7145 16.2105 70.055 16.1082 70.3469 15.9037C70.6527 15.6991 70.889 15.44 71.0558 15.1264C71.2365 14.8128 71.3546 14.4991 71.4102 14.1855V8.5194H73.9539V18.1128H71.577L71.4311 16.4969C71.0836 17.0287 70.6597 17.4651 70.1593 17.806C69.6589 18.1469 69.0682 18.3174 68.3871 18.3174Z" fill="white"/>
<path d="M60.0259 4.71475H62.5696V18.1128H60.0259V4.71475Z" fill="white"/>
<path d="M57.6055 15.9651C57.6055 16.4423 57.6402 16.8514 57.7097 17.1924C57.7931 17.5196 57.9113 17.8265 58.0642 18.1128H55.3537C55.2981 17.9628 55.2495 17.7856 55.2078 17.581C55.1661 17.3628 55.1452 17.1651 55.1452 16.9878C54.8394 17.3696 54.4433 17.6901 53.9568 17.9492C53.4703 18.1947 52.8796 18.3174 52.1846 18.3174C51.6286 18.3174 51.1074 18.2151 50.6209 18.0106C50.1344 17.806 49.7383 17.4856 49.4325 17.0492C49.1267 16.6128 48.9738 16.0537 48.9738 15.3719C48.9738 14.4446 49.2657 13.7764 49.8495 13.3673C50.4332 12.9445 51.0865 12.6445 51.8093 12.4672C52.2124 12.3718 52.7128 12.2968 53.3105 12.2422C53.9221 12.174 54.5128 12.14 55.0827 12.14V11.6899C55.0827 11.2399 54.9506 10.8854 54.6865 10.6263C54.339 10.299 53.797 10.1354 53.0603 10.1354C52.5321 10.1354 52.0039 10.2172 51.4757 10.3808C50.9475 10.5445 50.4888 10.749 50.0997 10.9945L49.4116 9.27624C49.8981 9.01714 50.4819 8.79896 51.163 8.62168C51.858 8.43076 52.5599 8.33531 53.2688 8.33531C53.9916 8.33531 54.617 8.41713 55.1452 8.58077C55.6734 8.73077 56.1112 8.94896 56.4587 9.23533C56.8201 9.5217 57.0981 9.8899 57.2927 10.3399C57.5012 10.7763 57.6055 11.3558 57.6055 12.0786V15.9651ZM55.0827 13.6127C54.8881 13.6127 54.6031 13.6264 54.2278 13.6536C53.8526 13.6809 53.5259 13.715 53.2479 13.7559C52.7892 13.8377 52.3861 13.9809 52.0387 14.1855C51.7051 14.39 51.5383 14.7241 51.5383 15.1878C51.5383 15.6787 51.6842 16.0332 51.9761 16.2514C52.268 16.4696 52.6294 16.5787 53.0603 16.5787C53.4495 16.5787 53.8248 16.4764 54.1861 16.2719C54.5475 16.0673 54.8464 15.7673 55.0827 15.3719V13.6127Z" fill="white"/>
<path d="M37.2749 5.12386H40.0479L43.3004 15.3514L46.5947 5.12386H49.1591L44.6765 18.1128H41.7576L37.2749 5.12386Z" fill="white"/>
<path d="M92.6067 25.1534V28.5985C92.6067 29.0357 92.5722 29.3836 92.5031 29.6422C92.4404 29.9009 92.3399 30.1195 92.2019 30.298C92.045 30.5012 91.8253 30.6675 91.5428 30.7968C91.2667 30.9323 90.9215 31 90.5073 31C90.2374 31 89.9863 30.9692 89.7541 30.9076C89.5281 30.8461 89.3399 30.7753 89.1892 30.6952C89.0386 30.6213 88.9288 30.5567 88.8597 30.5012L89.161 30.0025C89.2175 30.0456 89.3148 30.0979 89.4528 30.1595C89.5909 30.2272 89.751 30.2857 89.933 30.335C90.1213 30.3904 90.3095 30.4181 90.4978 30.4181C90.7803 30.4181 91.0125 30.3812 91.1945 30.3073C91.3828 30.2334 91.5272 30.1349 91.6276 30.0117C91.8284 29.7716 91.9288 29.3929 91.9288 28.8756V28.5154C91.8159 28.7309 91.6339 28.9187 91.3828 29.0788C91.138 29.2389 90.8336 29.319 90.4696 29.319C90.1056 29.319 89.7855 29.2297 89.5093 29.0511C89.2394 28.8664 89.0292 28.6139 88.8785 28.2937C88.7279 27.9674 88.6526 27.5979 88.6526 27.1854C88.6526 26.779 88.7373 26.4157 88.9068 26.0955C89.0762 25.7691 89.3053 25.5167 89.594 25.3381C89.8828 25.1534 90.2029 25.061 90.5543 25.061C90.9309 25.061 91.229 25.1441 91.4487 25.3104C91.6746 25.4766 91.8316 25.6644 91.9194 25.8738L92.0136 25.1534H92.6067ZM90.6296 28.7463C90.887 28.7463 91.1129 28.6786 91.3075 28.5431C91.5083 28.4015 91.6621 28.2106 91.7688 27.9705C91.8818 27.7303 91.9383 27.4655 91.9383 27.1761C91.9383 26.8806 91.8849 26.6158 91.7782 26.3818C91.6778 26.1416 91.5303 25.9538 91.3357 25.8184C91.1474 25.6767 90.9278 25.6059 90.6767 25.6059C90.4194 25.6059 90.1903 25.6767 89.9895 25.8184C89.7949 25.9538 89.6411 26.1416 89.5281 26.3818C89.4214 26.6219 89.3681 26.8867 89.3681 27.1761C89.3681 27.4717 89.4183 27.7395 89.5187 27.9797C89.6254 28.2137 89.7729 28.4015 89.9612 28.5431C90.1558 28.6786 90.3786 28.7463 90.6296 28.7463Z" fill="white"/>
<path d="M84.0827 25.1534H84.7134L84.7699 25.9569C84.908 25.7045 85.0994 25.492 85.3442 25.3196C85.5953 25.1472 85.8934 25.061 86.2386 25.061C86.6654 25.061 87.0043 25.1903 87.2554 25.4489C87.5064 25.7014 87.6319 26.0924 87.6319 26.6219V29.3836H86.9447V26.8251C86.9447 26.4495 86.8756 26.1632 86.7376 25.9662C86.5995 25.763 86.3641 25.6614 86.0315 25.6614C85.8118 25.6614 85.611 25.726 85.4289 25.8553C85.2469 25.9846 85.0994 26.1416 84.9865 26.3264C84.8735 26.5111 84.8013 26.6835 84.7699 26.8436V29.3836H84.0827V25.1534Z" fill="white"/>
<path d="M82.3164 24.2112C82.1784 24.2112 82.0591 24.1681 81.9587 24.0819C81.8645 23.9896 81.8175 23.8757 81.8175 23.7402C81.8175 23.6047 81.8645 23.4908 81.9587 23.3984C82.0528 23.3061 82.1689 23.2599 82.307 23.2599C82.4451 23.2599 82.5612 23.3061 82.6553 23.3984C82.7558 23.4846 82.806 23.5955 82.806 23.7309C82.806 23.8664 82.7589 23.9803 82.6648 24.0727C82.5706 24.1651 82.4545 24.2112 82.3164 24.2112ZM81.9681 25.1534H82.6553V29.3836H81.9681V25.1534Z" fill="white"/>
<path d="M80.3529 29.476C79.9888 29.476 79.7001 29.3682 79.4867 29.1527C79.38 29.0357 79.3047 28.8941 79.2608 28.7278C79.2168 28.5554 79.1949 28.3276 79.1949 28.0444V25.6706H78.5547V25.1534H79.1949L79.2702 23.9619H79.8821V25.1534H81.1154V25.6706H79.8821V27.9889C79.8821 28.2044 79.8947 28.3707 79.9198 28.4877C79.9512 28.6047 80.0014 28.694 80.0704 28.7556C80.1834 28.8664 80.3466 28.9218 80.56 28.9218C80.6416 28.9218 80.7263 28.9157 80.8142 28.9033C80.902 28.8849 80.9648 28.8695 81.0024 28.8572L81.0872 29.3744C80.9993 29.399 80.8832 29.4206 80.7388 29.439C80.6008 29.4637 80.4721 29.476 80.3529 29.476Z" fill="white"/>
<path d="M76.9391 23.3338H77.6263V29.3836H76.9391V23.3338Z" fill="white"/>
<path d="M73.4034 29.4668C72.9829 29.4668 72.644 29.3436 72.3866 29.0973C72.1356 28.851 72.0101 28.46 72.0101 27.9243V25.1534H72.6973V27.758C72.6973 28.1213 72.7664 28.3984 72.9044 28.5893C73.0488 28.7802 73.2779 28.8756 73.5917 28.8756C73.7988 28.8756 73.9902 28.8171 74.166 28.7001C74.3417 28.577 74.4861 28.4261 74.5991 28.2476C74.7183 28.0628 74.7936 27.8843 74.825 27.7118V25.1534H75.5123V29.3836H74.8815L74.825 28.5801C74.6869 28.8264 74.4955 29.0357 74.2507 29.2081C74.0059 29.3806 73.7235 29.4668 73.4034 29.4668Z" fill="white"/>
<path d="M69.4082 29.4668C69.1446 29.4668 68.8998 29.4237 68.6739 29.3374C68.4479 29.2451 68.2565 29.1404 68.0996 29.0234C67.949 28.9064 67.8391 28.8048 67.7701 28.7186L68.1655 28.3122C68.3036 28.4661 68.4856 28.6078 68.7115 28.7371C68.9438 28.8602 69.1885 28.9218 69.4459 28.9218C69.7346 28.9218 69.9605 28.8664 70.1237 28.7556C70.2869 28.6447 70.3685 28.4877 70.3685 28.2845C70.3685 28.1552 70.3308 28.0474 70.2555 27.9612C70.1865 27.875 70.1049 27.8104 70.0107 27.7673C69.9229 27.718 69.813 27.6687 69.6812 27.6195L69.427 27.5363C69.1572 27.4563 68.9626 27.3886 68.8433 27.3331C68.7115 27.2839 68.586 27.2254 68.4668 27.1577C68.3538 27.0838 68.244 26.9729 68.1373 26.8251C68.0368 26.6774 67.9866 26.4926 67.9866 26.271C67.9866 26.0308 68.0494 25.8184 68.1749 25.6336C68.3004 25.4489 68.4762 25.3073 68.7021 25.2088C68.9343 25.1041 69.2011 25.0518 69.5024 25.0518C69.7785 25.0518 70.0233 25.0918 70.2367 25.1718C70.4501 25.2457 70.6195 25.3258 70.7451 25.412C70.8706 25.4982 70.9459 25.5598 70.971 25.5967L70.6509 26.0585C70.5191 25.9292 70.3528 25.8184 70.152 25.726C69.9574 25.6336 69.7471 25.5875 69.5212 25.5875C69.2639 25.5875 69.0505 25.6398 68.881 25.7445C68.7178 25.843 68.6362 25.9908 68.6362 26.1878C68.6362 26.3171 68.6707 26.4218 68.7398 26.5019C68.8151 26.5819 68.8936 26.6435 68.9752 26.6866C69.063 26.7235 69.1854 26.7697 69.3423 26.8251L69.7189 26.9545C69.7817 26.9729 69.8507 26.9945 69.926 27.0191C70.0013 27.0437 70.0766 27.0714 70.152 27.1022C70.3654 27.1884 70.5662 27.3147 70.7545 27.4809C70.9428 27.6472 71.0369 27.8843 71.0369 28.1921C71.0369 28.5308 70.902 28.8233 70.6321 29.0696C70.5003 29.1866 70.3308 29.282 70.1237 29.3559C69.9166 29.4298 69.6781 29.4668 69.4082 29.4668Z" fill="white"/>
<path d="M63.3414 25.1534H63.9722L64.0286 25.9569C64.1667 25.7045 64.3582 25.492 64.6029 25.3196C64.854 25.1472 65.1521 25.061 65.4973 25.061C65.9241 25.061 66.263 25.1903 66.5141 25.4489C66.7651 25.7014 66.8906 26.0924 66.8906 26.6219V29.3836H66.2034V26.8251C66.2034 26.4495 66.1344 26.1632 65.9963 25.9662C65.8582 25.763 65.6228 25.6614 65.2902 25.6614C65.0705 25.6614 64.8697 25.726 64.6877 25.8553C64.5056 25.9846 64.3581 26.1416 64.2452 26.3264C64.1322 26.5111 64.06 26.6835 64.0286 26.8436V29.3836H63.3414V25.1534Z" fill="white"/>
<path d="M60.2272 29.4668C59.8255 29.4668 59.4709 29.3775 59.1633 29.1989C58.8558 29.0142 58.6142 28.7556 58.4384 28.423C58.269 28.0905 58.1842 27.7057 58.1842 27.2685C58.1842 26.8251 58.269 26.4372 58.4384 26.1047C58.6142 25.7722 58.8558 25.5167 59.1633 25.3381C59.4709 25.1534 59.8255 25.061 60.2272 25.061C60.6289 25.061 60.9835 25.1534 61.291 25.3381C61.5986 25.5167 61.8371 25.7722 62.0065 26.1047C62.1823 26.4372 62.2701 26.8251 62.2701 27.2685C62.2701 27.7057 62.1854 28.0905 62.0159 28.423C61.8465 28.7556 61.6048 29.0142 61.291 29.1989C60.9835 29.3775 60.6289 29.4668 60.2272 29.4668ZM60.2272 28.9218C60.5033 28.9218 60.7418 28.8541 60.9427 28.7186C61.1435 28.577 61.2942 28.383 61.3946 28.1367C61.5013 27.8843 61.5546 27.5948 61.5546 27.2685C61.5546 26.9421 61.5013 26.6527 61.3946 26.4003C61.2942 26.1478 61.1435 25.9538 60.9427 25.8184C60.7418 25.6767 60.5033 25.6059 60.2272 25.6059C59.951 25.6059 59.7125 25.6767 59.5117 25.8184C59.3108 25.9538 59.1571 26.1478 59.0504 26.4003C58.9499 26.6527 58.8997 26.9421 58.8997 27.2685C58.8997 27.5948 58.9499 27.8843 59.0504 28.1367C59.1571 28.383 59.3108 28.577 59.5117 28.7186C59.7125 28.8541 59.951 28.9218 60.2272 28.9218Z" fill="white"/>
<path d="M55.3633 29.4668C54.8299 29.4668 54.356 29.3467 53.9418 29.1065C53.5338 28.8602 53.2137 28.5093 52.9815 28.0536C52.7555 27.5979 52.6426 27.0622 52.6426 26.4465C52.6426 25.843 52.7649 25.3135 53.0097 24.8578C53.2608 24.4021 53.5966 24.0511 54.0171 23.8048C54.4376 23.5585 54.902 23.4354 55.4104 23.4354C55.7744 23.4354 56.1008 23.4939 56.3895 23.6109C56.6782 23.7217 56.9199 23.8633 57.1144 24.0358C57.309 24.202 57.4565 24.3744 57.5569 24.553L57.0768 24.9871C57.0015 24.8393 56.8885 24.6946 56.7379 24.553C56.5935 24.4114 56.4084 24.2944 56.1824 24.202C55.9565 24.1096 55.7023 24.0635 55.4198 24.0635C55.0182 24.0635 54.6635 24.1651 54.356 24.3683C54.0485 24.5653 53.81 24.8455 53.6405 25.2088C53.471 25.5659 53.3863 25.9754 53.3863 26.4372C53.3863 26.9052 53.4679 27.3208 53.6311 27.6841C53.7943 28.0474 54.0265 28.3307 54.3278 28.5339C54.629 28.7309 54.9805 28.8294 55.3822 28.8294C55.7901 28.8294 56.1447 28.734 56.446 28.5431C56.7473 28.3522 56.9764 28.1275 57.1333 27.8689L57.5852 28.3122C57.4722 28.5093 57.3121 28.694 57.105 28.8664C56.9042 29.0388 56.6563 29.1835 56.3613 29.3005C56.0663 29.4113 55.7337 29.4668 55.3633 29.4668Z" fill="white"/>
</svg>
